<?xml version="1.0" encoding="utf-8"?>
<!-- Generator: Adobe Illustrator 18.0.0, SVG Export Plug-In . SVG Version: 6.00 Build 0)  -->
<!DOCTYPE svg PUBLIC "-//W3C//DTD SVG 1.1//EN" "http://www.w3.org/Graphics/SVG/1.1/DTD/svg11.dtd">
<svg version="1.1" id="Layer_1" xmlns="http://www.w3.org/2000/svg" xmlns:xlink="http://www.w3.org/1999/xlink" x="0px" y="0px"
	 viewBox="-108 -93.5 600 300" enable-background="new -108 -93.5 600 300" xml:space="preserve">
<g>
	<path fill="#222222" d="M176.2,3.8v15.6h-2.5V3.8H170V1.5h9.9v2.3H176.2z"/>
	<path fill="#222222" d="M193.4,19.4v-7.9h-5.1v7.9h-2.5V1.5h2.5v7.8h5.1V1.5h2.5v17.9H193.4z"/>
	<path fill="#222222" d="M202.3,19.4V1.5h8.3v2.3h-5.8V9h4.2v2.2h-4.2v6h5.8v2.3C210.7,19.4,202.3,19.4,202.3,19.4z"/>
	<path fill="#222222" d="M111.9,77.2c-1.6,1.4-3.7,2.1-6.5,2.1H92.9V39.4h12.4c2.8,0,5,0.7,6.5,2.2s2.3,3.5,2.3,6.3v4.3
		c0,1.7-0.4,3.2-1.1,4.4c-0.7,1.2-1.9,2-3.7,2.3c1.8,0.5,3,1.3,3.8,2.5c0.7,1.2,1.2,2.7,1.2,4.3v5.2
		C114.3,73.6,113.5,75.8,111.9,77.2L111.9,77.2z M107,48.4c0-0.9-0.2-1.6-0.6-2.1c-0.4-0.5-1.1-0.7-2-0.7h-4v11h3.7c2,0,3-1,3-3.1
		C107,53.4,107,48.4,107,48.4z M107.1,65.1c0-2.1-1-3.2-3-3.2h-3.9v11.3h4.2c0.9,0,1.6-0.2,2-0.7c0.4-0.5,0.6-1.2,0.6-2.1V65.1z"/>
	<path fill="#222222" d="M123.3,79.3V39.4h7.4v39.9C130.8,79.3,123.3,79.3,123.3,79.3z"/>
	<path fill="#222222" d="M146.6,72.7h12.3v6.6h-21.3V77l12.9-31.1h-12.2v-6.4h21v2.3L146.6,72.7z"/>
	<path fill="#222222" d="M200.7,76.5c-1.9,1.9-4.6,2.8-8.1,2.8h-11.5V39.4h11.5c1.8,0,3.3,0.3,4.7,0.8c1.4,0.5,2.5,1.3,3.5,2.2
		c0.9,1,1.7,2.2,2.2,3.4c0.5,1.3,0.7,2.8,0.7,4.3v18.7C203.6,72.1,202.6,74.6,200.7,76.5L200.7,76.5z M196.1,50.3
		c0-1.4-0.3-2.5-0.9-3.3c-0.6-0.8-1.6-1.1-3-1.1h-3.6v27.1h3.6c1.4,0,2.4-0.4,3-1.1c0.6-0.8,0.9-1.8,0.9-3.2V50.3z"/>
	<path fill="#222222" d="M233,73.7c-0.5,1.3-1.3,2.5-2.2,3.4c-1,1-2.2,1.7-3.6,2.3c-1.4,0.5-3,0.8-4.7,0.8s-3.3-0.3-4.7-0.8
		c-1.4-0.5-2.6-1.3-3.6-2.2c-1-1-1.8-2.1-2.3-3.4c-0.5-1.3-0.8-2.8-0.8-4.4v-20c0-1.6,0.3-3,0.8-4.3c0.5-1.3,1.3-2.5,2.3-3.4
		c1-1,2.2-1.7,3.6-2.2c1.4-0.5,2.9-0.8,4.7-0.8s3.3,0.3,4.7,0.8c1.4,0.5,2.7,1.3,3.5,2.2c1,1,1.7,2.2,2.3,3.4
		c0.5,1.3,0.8,2.8,0.8,4.3v19.9C233.8,71,233.5,72.4,233,73.7L233,73.7z M226.4,49c0-1.2-0.3-2.1-1-2.8c-0.7-0.7-1.6-1.1-2.9-1.1
		c-1.2,0-2.1,0.4-2.8,1.1c-0.7,0.7-1,1.7-1,2.8v20.8c0,1.2,0.3,2.2,1,2.8c0.7,0.7,1.7,1,2.8,1.1c1.2,0,2.2-0.4,2.9-1.1
		c0.7-0.7,1-1.7,1-2.8L226.4,49L226.4,49z"/>
	<path fill="#222222" d="M257.7,77.2c-1.8,2-4.5,3-7.9,3c-3.4,0-6-0.9-7.8-2.8c-1.9-1.9-2.8-4.4-2.8-7.5v-6.4h7.1V70
		c0,1.2,0.3,2.2,0.8,2.8c0.6,0.7,1.5,1,2.5,1c2.2,0,3.4-1.2,3.4-3.7V39.4h7.4v30.1C260.5,72.6,259.6,75.3,257.7,77.2L257.7,77.2z"/>
	<path fill="#222222" d="M290.2,73.7c-0.5,1.3-1.3,2.5-2.2,3.4c-1,1-2.2,1.7-3.6,2.3c-1.4,0.5-3,0.8-4.7,0.8c-1.8,0-3.3-0.3-4.7-0.8
		c-1.4-0.5-2.6-1.3-3.6-2.2c-1-1-1.8-2.1-2.3-3.4c-0.5-1.3-0.8-2.8-0.8-4.4v-20c0-1.6,0.3-3,0.8-4.3c0.5-1.3,1.3-2.5,2.3-3.4
		c1-1,2.2-1.7,3.6-2.2c1.4-0.5,2.9-0.8,4.7-0.8c1.8,0,3.3,0.3,4.7,0.8c1.4,0.5,2.7,1.3,3.5,2.2c1,1,1.7,2.2,2.3,3.5
		c0.5,1.3,0.8,2.8,0.8,4.3v19.9C291,71,290.7,72.4,290.2,73.7L290.2,73.7z M283.6,49c0-1.2-0.3-2.1-1-2.8c-0.7-0.7-1.6-1.1-2.9-1.1
		c-1.2,0-2.1,0.4-2.8,1c-0.7,0.7-1,1.7-1,2.8v20.8c0,1.2,0.3,2.2,1,2.8c0.7,0.7,1.7,1,2.8,1c1.2,0,2.2-0.4,2.9-1.1
		c0.7-0.7,1-1.7,1-2.8L283.6,49L283.6,49z"/>
	<path fill="#222222" d="M268.5,189h-153L39,56.5L115.5-76h153L345,56.5L268.5,189z M121.6,178.5h140.9l70.5-122l-70.5-122H121.6
		l-70.5,122L121.6,178.5z"/>
</g>
</svg>
