<?xml version="1.0" encoding="utf-8"?>
<!-- Generator: Adobe Illustrator 18.0.0, SVG Export Plug-In . SVG Version: 6.00 Build 0)  -->
<!DOCTYPE svg PUBLIC "-//W3C//DTD SVG 1.1//EN" "http://www.w3.org/Graphics/SVG/1.1/DTD/svg11.dtd">
<svg version="1.1" id="Layer_1" xmlns="http://www.w3.org/2000/svg" xmlns:xlink="http://www.w3.org/1999/xlink" x="0px" y="0px"
	 viewBox="0 0 231.9 101.6" enable-background="new 0 0 231.9 101.6" xml:space="preserve">
<path fill="#FFFFFF" d="M59.4,52.2c0,0.6-0.5,1.1-1.3,1.3c-0.8,0.2-1.7,0.5-2.8,0.7c-1,0.2-2,0.5-3,0.6c-1,0.2-1.8,0.4-2.5,0.5
	c-0.7,0.2-1.2,0.3-1.4,0.4c0,0.1,0,0.1,0,0.3c0,0.1,0,0.2,0,0.3l0.1,1.2c0,0.3-0.1,0.5-0.2,0.7c-0.1,0.2-0.3,0.2-0.5,0.2
	c-0.3,0-0.5-0.1-0.6-0.3c-0.1-0.2-0.2-0.4-0.3-0.7c-0.1-0.3-0.1-0.5-0.1-0.8c0-0.3-0.1-0.5-0.2-0.6c-0.1,0-0.3,0-0.8,0.1
	c-0.5,0.1-1.1,0.2-1.8,0.4c-0.7,0.1-1.6,0.3-2.5,0.5c-0.9,0.2-1.8,0.3-2.6,0.5c-0.9,0.1-1.7,0.2-2.4,0.3c-0.7,0.1-1.3,0.1-1.7,0.1
	c-0.9-0.1-1.3-0.4-1.3-1c0-0.4,0.2-0.7,0.4-0.9c0.3-0.2,0.6-0.3,0.9-0.4c0.1,0,0.4-0.1,1-0.2c0.6-0.1,1.3-0.2,2.2-0.3
	c0.9-0.1,1.8-0.3,2.7-0.4c1-0.2,1.9-0.3,2.7-0.5c0.8-0.1,1.5-0.3,2.1-0.4s0.8-0.2,0.8-0.3c0-0.2,0-0.6-0.1-1.1
	c-0.1-0.5-0.2-1.1-0.3-1.5l-0.2-1c-0.3-2.2-0.5-4.4-0.6-6.6c-0.1-2.2-0.2-4.4-0.2-6.5c-0.1-0.1-0.1-0.1-0.2-0.1
	c-0.2,0-0.6,0.1-1.3,0.4s-1.5,0.6-2.3,0.9c-0.8,0.3-1.6,0.6-2.3,0.9c-0.7,0.3-1.1,0.4-1.3,0.4c-0.2,0-0.5-0.1-0.7-0.4
	c-0.2-0.2-0.3-0.4-0.3-0.6c0-0.3,0.3-0.6,0.7-0.9c0.5-0.3,1-0.6,1.7-1c0.7-0.3,1.4-0.7,2.2-0.9s1.6-0.6,2.3-0.8s1.4-0.4,1.9-0.5
	s0.9-0.2,1.1-0.2c0.3,0,0.6,0,1.1-0.1c0.4-0.1,0.9-0.2,1.4-0.2c0.5-0.1,1-0.2,1.6-0.2c0.5-0.1,1-0.1,1.4,0c0.4,0,0.6,0.2,0.6,0.5
	c0,0.2-0.1,0.3-0.2,0.4l-1.5,0.3c-0.4,0.1-0.8,0.2-1.2,0.2c-0.4,0.1-0.8,0.2-1.2,0.3c-0.4,0.1-0.7,0.3-0.9,0.4
	c-0.2,0.2-0.4,0.4-0.4,0.6c-0.1,0.8-0.1,1.9,0,3.3c0.1,1.4,0.2,2.8,0.3,4.4s0.3,3.2,0.5,4.8c0.2,1.6,0.3,3.2,0.4,4.6l9.2-1.7
	c0.2,0,0.4-0.1,0.6-0.1c0.2-0.1,0.3-0.1,0.5-0.1c0.2,0,0.3,0,0.5,0C59.3,51.5,59.4,51.7,59.4,52.2z"/>
<path fill="#FFFFFF" d="M76.2,37.8c-0.5,0.5-1.1,0.9-2,1.3c-0.8,0.4-1.7,0.8-2.5,1.2c-0.8,0.3-1.6,0.6-2.2,0.9
	c-0.6,0.2-0.9,0.4-0.9,0.5c0,0.1,0,0.4,0.1,0.9c0.1,0.5,0.2,1.1,0.3,1.8c0.1,0.7,0.3,1.4,0.4,2.2c0.1,0.8,0.3,1.4,0.4,2
	c0,0.3,0.1,0.8,0.2,1.3c0.1,0.5,0.1,1.1,0.2,1.6c0,0.5,0.1,1,0.1,1.4c0,0.4,0.1,0.7,0.1,0.7c0,0.5-0.2,1-0.4,1.5S69.5,56,69.1,56
	c-0.2,0-0.4-0.1-0.5-0.3c-0.2-0.2-0.3-0.4-0.4-0.6c-0.1-0.2-0.2-0.4-0.3-0.7s-0.1-0.4-0.1-0.5c0-0.1,0-0.2,0-0.3
	c0-0.1,0-0.3,0.1-0.5c0-0.6,0-1.6-0.1-2.8c0-0.4-0.1-1-0.3-1.7c-0.1-0.8-0.3-1.6-0.4-2.4c-0.2-1-0.4-2-0.6-3.1
	c-0.1-0.5-0.2-0.7-0.2-0.7c-0.2,0-0.6,0.1-1.2,0.3s-1.2,0.5-2,0.9s-1.5,0.8-2.3,1.2c-0.8,0.4-1.6,0.8-2.3,1.2
	c-0.7,0.4-1.3,0.7-1.8,0.9c-0.5,0.2-0.8,0.4-0.9,0.4c-0.4,0-0.8-0.2-1-0.5c-0.2-0.3-0.4-0.7-0.3-1c0-0.2,0.3-0.5,0.9-0.8
	c0.6-0.3,1.3-0.7,2.2-1.1c0.9-0.4,1.8-0.8,2.8-1.3c1-0.4,1.9-0.8,2.8-1.2c0.9-0.3,1.8-0.7,3-1.2c-0.2-1.6-0.3-3-0.5-4.2
	c-0.1-1.1-0.2-2-0.3-2.9c-0.1-0.9-0.1-1.4-0.1-1.4c0-0.4,0.1-0.8,0.3-1c0.2-0.2,0.4-0.3,0.7-0.3c0.4,0,0.6,0.3,0.7,0.8
	c0.2,1.8,0.5,3.5,0.7,4.9c0.2,1.4,0.4,2.6,0.7,3.5c0.3,0,0.8-0.2,1.6-0.5c0.8-0.3,1.6-0.6,2.4-0.9c0.8-0.3,1.6-0.6,2.3-0.8
	c0.7-0.2,1.1-0.4,1.2-0.3c0.2,0,0.3,0.1,0.4,0.2C76.1,37.5,76.1,37.7,76.2,37.8z"/>
<path fill="#FFFFFF" d="M82.2,45.9c0,0.6-0.2,1.1-0.5,1.6c-0.3,0.5-0.6,0.9-1,1.2c-0.4,0.3-0.7,0.6-1,0.8c-0.3,0.2-0.5,0.3-0.7,0.3
	c-0.1,0-0.2-0.1-0.4-0.3c-0.1-0.2-0.2-0.3-0.2-0.5c0,0,0.1-0.1,0.2-0.3c0.1-0.2,0.3-0.4,0.5-0.7c0.2-0.3,0.4-0.6,0.6-1
	c0.2-0.4,0.3-0.8,0.3-1.2c0.1-0.9,0-1.7-0.1-2.4c-0.1-0.7-0.3-1.4-0.5-2.1c0-0.1-0.1-0.2-0.1-0.4c0-0.1-0.1-0.2-0.1-0.3
	c0-0.2,0.1-0.4,0.3-0.4c0.2-0.1,0.3-0.1,0.5-0.1c0.2,0,0.5,0.2,0.8,0.7c0.3,0.4,0.5,1,0.7,1.5c0.2,0.6,0.4,1.2,0.5,1.9
	C82.2,44.9,82.3,45.5,82.2,45.9z"/>
<path fill="#FFFFFF" d="M96.7,55.5c0,0.6-0.3,1.1-0.7,1.4c-0.4,0.4-0.9,0.7-1.5,0.9c-0.6,0.2-1.3,0.4-2,0.5c-0.7,0.1-1.4,0.2-2,0.2
	c-0.6,0-1.2,0-1.7,0c-0.5,0-0.8,0-0.9,0c-0.7-0.1-1.3-0.2-1.7-0.5c-0.4-0.3-0.6-0.7-0.5-1.3c0-0.2,0-0.4,0.1-0.5
	c0-0.1,0.2-0.2,0.4-0.2c0.1,0,0.3,0,0.5,0.1c0.2,0.1,0.4,0.1,0.5,0.1c0.1,0,0.6,0,1.3,0c0.7,0,1.5,0,2.3-0.1
	c0.8-0.1,1.6-0.2,2.3-0.4c0.7-0.2,1-0.5,1.1-0.9c0-0.1-0.3-0.3-1-0.7c-0.7-0.4-1.7-1.1-3-2c-1-0.7-1.7-1.5-2.1-2.2
	c-0.4-0.7-0.5-1.7-0.4-2.8c0.1-0.7,0.3-1.3,0.6-1.8c0.4-0.4,0.8-0.8,1.4-1c0.6-0.2,1.2-0.4,2-0.4c0.7-0.1,1.5-0.1,2.3,0
	c0.1,0,0.3,0.1,0.6,0.1c0.3,0.1,0.7,0.2,1.1,0.4c0.4,0.2,0.7,0.4,1,0.6c0.3,0.2,0.4,0.5,0.4,0.8c0,0.1-0.1,0.2-0.2,0.3
	c-0.1,0.1-0.3,0.4-0.6,0.7c-0.1,0-0.3-0.1-0.5-0.2c-0.2-0.1-0.5-0.2-0.8-0.3c-0.3-0.1-0.6-0.2-1-0.3c-0.3-0.1-0.6-0.1-0.8-0.1
	c-0.9-0.1-1.6,0-2.2,0.3s-0.9,0.9-0.9,1.8c0,0.4,0.1,0.9,0.4,1.2c0.3,0.4,0.7,0.8,1.3,1.1c0.5,0.4,1.1,0.7,1.7,1.1
	c0.6,0.4,1.2,0.8,1.7,1.2c0.5,0.4,0.9,0.8,1.2,1.3S96.8,54.9,96.7,55.5z"/>
<path fill="#FFFFFF" d="M139.4,29.5c0,0.1,0,0.2,0,0.4c0,0.2,0,0.4,0,0.6c0,0.3-0.1,0.4-0.3,0.4c-0.1,0-0.2,0-0.3-0.1
	s-0.2-0.1-0.3-0.1c-0.6-0.3-1.4-0.8-2.3-1.3c-0.9-0.5-2-0.8-3.1-0.9c-1.3-0.1-2.4,0.3-3.3,1.3c-0.9,0.9-1.6,2.1-2.1,3.3
	c-0.5,1.3-0.9,2.6-1.1,3.8c-0.2,1.3-0.4,2.2-0.4,2.7c0,0.4,0,1.1,0.1,1.9c0.1,0.9,0.2,1.8,0.3,2.7c0.2,0.9,0.4,1.8,0.6,2.6
	c0.2,0.8,0.5,1.3,0.8,1.5c0.2,0,0.6,0,1.2,0c0.6,0,1.1,0,1.4,0c0.6,0,1.2,0.1,1.8,0.3c0.5,0.2,1.1,0.2,1.7,0.3c0.1,0,0.4,0,0.7,0
	s0.6,0.1,0.9,0.1c0.3,0.1,0.6,0.1,0.8,0.3c0.2,0.1,0.3,0.2,0.3,0.4c0,0.2-0.2,0.3-0.4,0.5c-0.3,0.1-0.6,0.2-0.9,0.3
	c-0.3,0.1-0.7,0.1-1,0.1c-0.3,0-0.6,0-0.8,0c-0.2,0-0.4,0-0.7-0.1c-0.3,0-0.6-0.1-1-0.2c-0.4-0.1-0.7-0.1-1-0.2
	c-0.3,0-0.6-0.1-0.8-0.1c-0.6,0-1,0-1.1,0.1c-0.1,0.1-0.2,0.4-0.3,0.7c0,0.6,0.2,1.3,0.6,2.3c0.4,1,0.9,2,1.4,3.2
	c0.5,1.1,1,2.3,1.4,3.5s0.6,2.3,0.5,3.2c0,0.2-0.1,0.5-0.2,1c-0.1,0.5-0.3,1-0.5,1.5c-0.2,0.5-0.5,1-0.8,1.3c-0.3,0.4-0.7,0.6-1,0.5
	c-0.3,0-0.6-0.1-0.8-0.3c-0.2-0.2-0.3-0.5-0.3-0.9c0-0.6,0.2-1.1,0.6-1.6c0.4-0.5,0.6-1,0.6-1.6c0-0.3-0.1-0.8-0.3-1.5
	s-0.5-1.5-0.9-2.4c-0.3-0.9-0.7-1.9-1.1-2.9c-0.4-1-0.8-1.9-1.2-2.7c-0.4-0.8-0.7-1.5-0.9-2.1c-0.3-0.5-0.4-0.8-0.4-0.9
	c-0.8,0.2-1.5,0.4-2.3,0.6c-0.8,0.2-1.5,0.5-2.2,1c-0.3,0.2-0.5,0.4-0.8,0.3c-0.4,0-0.7-0.2-1-0.5c-0.3-0.3-0.4-0.7-0.4-1
	c0-0.4,0.2-0.7,0.4-0.9c0.3-0.2,0.5-0.4,0.7-0.5c0.3-0.2,0.9-0.3,1.6-0.5c0.7-0.2,1.4-0.3,2.2-0.4c0.3-0.1,0.5-0.1,0.7-0.1
	c0.2,0,0.3-0.2,0.4-0.3c-0.1-0.4-0.2-0.9-0.4-1.5c-0.2-0.6-0.3-1.4-0.4-2.2c-0.1-0.9-0.2-1.8-0.3-2.9c-0.1-1.1-0.1-2.2,0-3.4
	c0.1-1.3,0.4-2.7,0.8-4.2c0.4-1.5,1-2.8,1.8-4c0.8-1.2,1.7-2.1,2.8-2.9c1.1-0.7,2.4-1,3.8-0.9c0.7,0,1.4,0.2,2.2,0.4
	c0.8,0.2,1.5,0.4,2.2,0.7c0.7,0.3,1.2,0.6,1.7,1C139.2,28.6,139.4,29.1,139.4,29.5z"/>
<path fill="#FFFFFF" d="M152.5,55.2c0,0.2-0.1,0.4-0.3,0.6c-0.2,0.1-0.5,0.2-0.7,0.3s-0.5,0.1-0.8,0.2c-0.3,0-0.5,0-0.7,0
	c-0.5,0-0.8-0.1-1-0.2s-0.3-0.1-0.4-0.1c-0.8-0.1-1.5,0-2,0.1c-0.5,0.1-0.9,0.3-1.2,0.6c-0.3,0.3-0.5,0.6-0.6,1.1
	c-0.1,0.4-0.2,1-0.2,1.6c-0.1,1.1-0.1,1.9-0.1,2.5c0,0.6,0.1,1.2,0.1,1.6c0.1,0.4,0.1,0.7,0.2,0.9s0.1,0.4,0.1,0.6
	c0,0.3-0.2,0.5-0.5,0.8c-0.3,0.3-0.6,0.4-0.8,0.4c-0.4,0-0.7-0.4-1-1.1c-0.3-0.7-0.5-1.6-0.6-2.6c-0.1-1-0.2-2-0.3-3
	c-0.1-1-0.1-1.7,0-2.2c0-0.6,0.1-1.1,0.3-1.6c0.1-0.5,0.3-0.9,0.5-1.3c0.2-0.4,0.4-0.7,0.6-0.9c0.2-0.2,0.4-0.3,0.6-0.3
	c0.2,0,0.3,0.1,0.4,0.2c0.1,0.1,0.2,0.3,0.2,0.4c0.1,0.2,0.1,0.3,0.2,0.4c0.1,0.1,0.2,0.2,0.3,0.2c0.3,0,0.8-0.1,1.5-0.3
	c0.7-0.2,1.5-0.3,2.5-0.3c0.9,0.1,1.6,0.1,2,0.2s0.9,0.2,1.3,0.4c0.1,0,0.2,0.1,0.4,0.3C152.5,54.8,152.5,54.9,152.5,55.2z"/>
<path fill="#FFFFFF" d="M169.6,66.4c0,0.1,0,0.2,0,0.3c0,0.2-0.2,0.5-0.5,0.9c-0.1,0.1-0.3,0.3-0.7,0.6c-0.4,0.3-0.8,0.5-1.4,0.8
	c-0.6,0.3-1.3,0.5-2.1,0.6c-0.8,0.2-1.8,0.2-2.9,0.1c-0.8-0.1-1.5-0.3-2.2-0.7c-0.7-0.4-1.3-1-1.8-1.7c-0.5-0.7-0.9-1.6-1.2-2.6
	c-0.3-1-0.4-2.2-0.3-3.6c0.1-1.3,0.3-2.5,0.8-3.6c0.4-1.1,0.9-2.1,1.5-2.9c0.6-0.8,1.2-1.5,1.9-1.9c0.7-0.5,1.3-0.7,1.9-0.6
	c0.5,0,1.1,0.2,1.6,0.4s1,0.6,1.4,0.9c0.4,0.4,0.8,0.8,1,1.2c0.2,0.4,0.3,0.9,0.3,1.3c0,0.5-0.3,1-0.8,1.5c-0.5,0.5-1.1,0.9-1.7,1.3
	c-0.7,0.4-1.3,0.7-2,1c-0.7,0.2-1.2,0.3-1.5,0.3c-0.2,0-0.4-0.1-0.5-0.3c-0.1-0.2-0.2-0.4-0.2-0.7c0-0.5,0.3-0.8,0.7-1
	c0.4-0.2,0.9-0.4,1.4-0.6c0.5-0.2,1-0.4,1.4-0.7c0.4-0.3,0.7-0.7,0.7-1.2c0-0.1-0.1-0.2-0.2-0.5c-0.2-0.3-0.6-0.4-1.3-0.5
	c-0.3,0-0.7,0.1-1.2,0.5c-0.5,0.4-0.9,0.8-1.4,1.5c-0.4,0.6-0.8,1.4-1.2,2.2s-0.5,1.8-0.6,2.8c-0.1,0.9,0,1.7,0.3,2.4
	c0.3,0.7,0.6,1.3,1.1,1.9c0.5,0.5,1,0.9,1.7,1.2c0.6,0.3,1.3,0.5,2,0.5c0.5,0,1,0,1.6-0.2c0.6-0.2,1.2-0.4,1.7-0.6
	c0.5-0.2,1-0.4,1.4-0.6c0.4-0.2,0.6-0.3,0.7-0.3c0.1,0,0.2,0.1,0.3,0.2C169.5,66.2,169.6,66.3,169.6,66.4z"/>
<path fill="#FFFFFF" d="M187,67.7c0,0.1,0,0.2,0,0.3c0,0.2-0.2,0.5-0.5,0.9c-0.1,0.1-0.3,0.3-0.7,0.6c-0.4,0.3-0.8,0.5-1.4,0.8
	c-0.6,0.3-1.3,0.5-2.1,0.6c-0.8,0.2-1.8,0.2-2.9,0.1c-0.8-0.1-1.5-0.3-2.2-0.7c-0.7-0.4-1.3-1-1.8-1.7s-0.9-1.6-1.2-2.6
	c-0.3-1-0.4-2.2-0.3-3.6c0.1-1.3,0.4-2.5,0.8-3.6c0.4-1.1,0.9-2.1,1.5-2.9c0.6-0.8,1.2-1.5,1.9-1.9s1.3-0.7,1.9-0.6
	c0.5,0,1.1,0.2,1.6,0.4c0.5,0.3,1,0.6,1.4,0.9c0.4,0.4,0.8,0.8,1,1.2c0.2,0.4,0.3,0.9,0.3,1.3c0,0.5-0.3,1-0.8,1.5
	c-0.5,0.5-1.1,0.9-1.7,1.3c-0.7,0.4-1.3,0.7-2,1c-0.7,0.2-1.2,0.3-1.5,0.3c-0.2,0-0.4-0.1-0.5-0.3c-0.1-0.2-0.2-0.4-0.2-0.7
	c0-0.5,0.3-0.8,0.7-1c0.4-0.2,0.9-0.4,1.4-0.6c0.5-0.2,1-0.4,1.4-0.7c0.4-0.3,0.7-0.7,0.7-1.2c0-0.1-0.1-0.2-0.2-0.5
	c-0.2-0.3-0.6-0.4-1.3-0.5c-0.3,0-0.7,0.1-1.2,0.5c-0.5,0.4-0.9,0.8-1.4,1.5c-0.4,0.6-0.8,1.4-1.2,2.2c-0.3,0.9-0.5,1.8-0.6,2.8
	c-0.1,0.9,0,1.7,0.3,2.4c0.3,0.7,0.6,1.3,1.1,1.9c0.5,0.5,1,0.9,1.7,1.2c0.6,0.3,1.3,0.5,2,0.5c0.5,0,1,0,1.6-0.2
	c0.6-0.2,1.2-0.4,1.7-0.6c0.5-0.2,1-0.4,1.4-0.6c0.4-0.2,0.6-0.3,0.7-0.3c0.1,0,0.2,0.1,0.3,0.2C186.9,67.5,186.9,67.6,187,67.7z"/>
<path fill="#FFFFFF" d="M198.7,39.8c0,0.4-0.3,1.3-0.8,2.7c-0.5,1.4-1.1,2.9-1.7,4.6c-0.6,1.7-1.2,3.3-1.7,4.9
	c-0.5,1.6-0.8,2.9-0.9,3.8c-0.1,1-0.1,1.8,0,2.4c0,0.6,0.1,1.2,0.2,1.6c0.1,0.4,0.2,0.8,0.2,1.1c0.1,0.3,0.1,0.7,0.1,1.1
	c-0.1,0.9-0.5,1.4-1.4,1.3c-0.1,0-0.3-0.1-0.4-0.3c-0.9-1.6-1.4-3.1-1.5-4.6c-0.1-1.5-0.1-2.6-0.1-3.4c0.1-1,0.3-2.2,0.7-3.8
	c0.4-1.5,0.9-3.2,1.4-4.9c0.6-1.7,1.2-3.4,1.8-5.2c0.7-1.7,1.3-3.2,1.9-4.5c0.1-0.1,0.2-0.2,0.4-0.3c0.1-0.1,0.3-0.1,0.6-0.1
	c0.3,0,0.6,0.2,0.7,0.4s0.3,0.6,0.4,0.9s0.1,0.7,0.1,1.1C198.8,39.3,198.8,39.6,198.7,39.8z M198.7,71.4c0,0.5-0.2,1-0.6,1.5
	c-0.3,0.5-0.7,0.8-1.2,0.7c-0.6,0-1.2-0.4-1.7-1s-0.7-1.4-0.6-2.2c0-0.3,0.1-0.6,0.3-1.1c0.2-0.4,0.5-0.6,0.9-0.6
	c0.2,0,0.4,0.1,0.8,0.1c0.3,0.1,0.7,0.2,1,0.4c0.3,0.2,0.6,0.5,0.9,0.8C198.7,70.5,198.8,70.9,198.7,71.4z"/>
<g>
	<path fill="#FFFFFF" d="M43.2,90.1c52.1,15,111.2,16.4,162.5-2c11.3-4.1,32.7-15.2,24.2-31.2c-11.6-21.8-38.9-33.6-60.7-42.5
		C124.1-3.9,53.8-8.6,13.3,23.2c-44.9,35.2,36.3,69.5,60,77.2c1.1,0.4,1.8-1.4,0.6-1.8c-15.7-5.1-30.8-11.8-45.2-19.7
		C14.5,71,0.5,58.8,4.9,39c4-18.1,26.9-25.1,41.9-29.4C86.6-2.2,130,2,168.6,16.2c19.3,7.1,39.1,18,53.8,32.6
		c5.1,19.1,1.1,31-12.1,35.5c-5.3,2.3-10.8,4.2-16.3,5.9c-9.9,3.1-20.2,5-30.5,6.6c-39.4,6.2-81.5,2.7-119.7-8.3
		C42.7,88,42.1,89.8,43.2,90.1L43.2,90.1z"/>
</g>
</svg>
