<?xml version="1.0" encoding="utf-8"?>
<!-- Generator: Adobe Illustrator 18.0.0, SVG Export Plug-In . SVG Version: 6.00 Build 0)  -->
<!DOCTYPE svg PUBLIC "-//W3C//DTD SVG 1.1//EN" "http://www.w3.org/Graphics/SVG/1.1/DTD/svg11.dtd">
<svg version="1.1" id="Layer_1" xmlns="http://www.w3.org/2000/svg" xmlns:xlink="http://www.w3.org/1999/xlink" x="0px" y="0px"
	 viewBox="0 0 600 300" enable-background="new 0 0 600 300" xml:space="preserve">
<g>
	<g>
		
			<rect x="152.7" y="103.2" transform="matrix(0.7071 -0.7071 0.7071 0.7071 -36.4882 158.0825)" fill="#222222" width="39.7" height="39.7"/>
		
			<rect x="184.4" y="134.9" transform="matrix(0.7071 -0.7071 0.7071 0.7071 -49.608 189.7564)" fill="#222222" width="39.7" height="39.7"/>
		
			<rect x="120.9" y="135.1" transform="matrix(0.7071 -0.7071 0.7071 0.7071 -68.3308 144.8929)" fill="#222222" width="39.7" height="39.7"/>
		
			<rect x="152.5" y="166.7" transform="matrix(0.7071 -0.7071 0.7071 0.7071 -81.4505 176.5668)" fill="#222222" width="39.7" height="39.7"/>
		
			<rect x="89" y="166.9" transform="matrix(0.7071 -0.7071 0.7071 0.7071 -100.1734 131.7032)" fill="#222222" width="39.7" height="39.7"/>
		
			<rect x="216.1" y="166.6" transform="matrix(0.7071 -0.7071 0.7071 0.7071 -62.7278 221.4303)" fill="#222222" width="39.7" height="39.7"/>
	</g>
	<g>
		<g>
			<path fill="#222222" d="M237.1,85.8h-9.6v35.1h-4.2V85.8h-9.6V82h23.3V85.8z"/>
			<path fill="#222222" d="M255.5,120.9V104c0-2.6-0.3-4.6-0.9-5.9c-0.6-1.4-1.8-2-3.6-2c-1.3,0-2.5,0.5-3.5,1.4
				c-1.1,0.9-1.8,2.1-2.1,3.5v20h-4V82h4v13.7h0.2c0.7-1,1.7-1.8,2.8-2.4c1.1-0.6,2.5-0.9,4.1-0.9c1.2,0,2.3,0.2,3.2,0.5
				c0.9,0.3,1.7,0.9,2.3,1.7c0.6,0.8,1,1.9,1.3,3.3c0.3,1.4,0.4,3,0.4,5v18H255.5z"/>
			<path fill="#222222" d="M282.3,119c-0.9,0.8-2,1.4-3.4,1.9c-1.4,0.4-2.8,0.7-4.3,0.7c-1.7,0-3.3-0.3-4.5-1
				c-1.3-0.7-2.3-1.7-3.2-3c-0.8-1.3-1.4-2.8-1.8-4.6c-0.4-1.8-0.6-3.8-0.6-6c0-4.7,0.9-8.4,2.6-10.9c1.7-2.5,4.2-3.7,7.4-3.7
				c1,0,2.1,0.1,3.1,0.4c1,0.3,1.9,0.8,2.8,1.6c0.8,0.8,1.5,1.9,2,3.3c0.5,1.4,0.8,3.2,0.8,5.5c0,0.6,0,1.3-0.1,2
				c-0.1,0.7-0.1,1.5-0.2,2.3h-14.1c0,1.6,0.1,3,0.4,4.3c0.3,1.3,0.7,2.4,1.2,3.3c0.6,0.9,1.3,1.6,2.1,2.1c0.9,0.5,2,0.8,3.3,0.8
				c1,0,2-0.2,3-0.6c1-0.4,1.7-0.8,2.3-1.3L282.3,119z M279.2,104.1c0.1-2.8-0.3-4.8-1.2-6.1c-0.9-1.3-2-1.9-3.5-1.9
				c-1.7,0-3.1,0.7-4.1,1.9c-1,1.3-1.6,3.3-1.8,6.1H279.2z"/>
		</g>
		<g>
			<path fill="#222222" d="M301.6,82h4.2v39h-4.2V82z"/>
			<path fill="#222222" d="M327.7,120.9v-17c0-2.8-0.3-4.8-1-6c-0.7-1.2-1.8-1.9-3.5-1.9c-1.5,0-2.7,0.4-3.7,1.3
				c-1,0.9-1.7,2-2.1,3.3v20.3h-4V93.1h2.9l0.7,2.9h0.2c0.7-1,1.7-1.9,2.9-2.6c1.2-0.7,2.6-1.1,4.3-1.1c1.2,0,2.2,0.2,3.1,0.5
				c0.9,0.3,1.7,0.9,2.3,1.7c0.6,0.8,1.1,1.9,1.4,3.2c0.3,1.3,0.5,3,0.5,5.1v18H327.7z"/>
			<path fill="#222222" d="M335.5,93.1h3.4v-1.6c0-3.5,0.5-6,1.5-7.6c1-1.6,2.7-2.3,5.1-2.3c1,0,1.8,0.1,2.6,0.2
				c0.8,0.1,1.6,0.4,2.4,0.7l-1,3.5c-0.7-0.3-1.3-0.5-1.9-0.6c-0.6-0.1-1.1-0.1-1.6-0.1c-0.7,0-1.3,0.1-1.7,0.4
				c-0.4,0.3-0.7,0.8-0.9,1.4c-0.2,0.6-0.3,1.4-0.4,2.4c-0.1,1-0.1,2.2-0.1,3.6h5.8v3.6h-5.8v24.2h-4V96.7h-3.4V93.1z"/>
			<path fill="#222222" d="M350.5,107c0-5,0.9-8.7,2.6-11c1.7-2.4,4.2-3.5,7.4-3.5c3.4,0,5.9,1.2,7.5,3.6c1.6,2.4,2.4,6.1,2.4,11
				c0,5-0.9,8.7-2.6,11.1c-1.7,2.3-4.2,3.5-7.3,3.5c-3.4,0-5.9-1.2-7.5-3.6C351.3,115.6,350.5,111.9,350.5,107z M354.7,107
				c0,1.6,0.1,3.1,0.3,4.5c0.2,1.3,0.5,2.5,1,3.5c0.5,1,1.1,1.7,1.8,2.3c0.7,0.5,1.6,0.8,2.7,0.8c1.9,0,3.4-0.9,4.3-2.6
				c1-1.7,1.4-4.5,1.4-8.4c0-1.6-0.1-3.1-0.3-4.4c-0.2-1.4-0.5-2.5-1-3.5c-0.5-1-1.1-1.7-1.8-2.3c-0.7-0.5-1.6-0.8-2.7-0.8
				c-1.9,0-3.3,0.9-4.3,2.6C355.2,100.4,354.7,103.2,354.7,107z"/>
			<path fill="#222222" d="M375.8,93.1h2.8l0.7,2.9h0.2c0.5-1.1,1.2-1.9,2-2.5c0.8-0.6,1.8-0.9,3-0.9c0.9,0,1.8,0.2,2.9,0.5
				l-0.8,4.1c-1-0.3-1.8-0.5-2.6-0.5c-1.2,0-2.2,0.3-2.9,1c-0.7,0.7-1.2,1.6-1.4,2.8v20.5h-4V93.1z"/>
			<path fill="#222222" d="M404.1,120.9v-16.5c0-1.5,0-2.8-0.1-3.8c-0.1-1.1-0.3-1.9-0.6-2.6c-0.3-0.7-0.7-1.2-1.2-1.5
				c-0.5-0.3-1.2-0.5-2.1-0.5c-1.3,0-2.3,0.5-3.2,1.5c-0.9,1-1.5,2.1-1.8,3.4v20h-4V93.1h2.8l0.7,2.9h0.2c0.8-1.1,1.7-1.9,2.8-2.6
				c1.1-0.7,2.4-1,4.1-1c1.4,0,2.6,0.3,3.5,0.9c0.9,0.6,1.6,1.7,2.1,3.3c0.7-1.3,1.6-2.3,2.9-3.1c1.2-0.7,2.6-1.1,4.1-1.1
				c1.2,0,2.3,0.2,3.1,0.5c0.9,0.3,1.6,0.9,2.1,1.7c0.5,0.8,0.9,1.9,1.2,3.2c0.3,1.3,0.4,3,0.4,5v18.2h-4v-17.7
				c0-2.4-0.2-4.2-0.7-5.4c-0.5-1.2-1.5-1.8-3.2-1.8c-1.4,0-2.5,0.4-3.4,1.3c-0.8,0.9-1.4,2.1-1.8,3.5v20H404.1z"/>
			<path fill="#222222" d="M427,94.8c1.1-0.7,2.4-1.2,3.9-1.6c1.5-0.4,3.2-0.6,4.9-0.6c1.6,0,2.8,0.2,3.8,0.7
				c0.9,0.5,1.7,1.1,2.2,1.9c0.5,0.8,0.9,1.7,1.1,2.7c0.2,1,0.3,2.1,0.3,3.2c0,2.2,0,4.4-0.1,6.5c-0.1,2.1-0.1,4.1-0.1,6
				c0,1.4,0,2.7,0.1,3.9c0.1,1.2,0.3,2.3,0.5,3.4h-3.1l-1-3.3h-0.2c-0.6,1-1.4,1.8-2.4,2.5c-1.1,0.7-2.5,1.1-4.3,1.1
				c-2,0-3.6-0.7-4.9-2.1c-1.3-1.4-1.9-3.3-1.9-5.8c0-1.6,0.3-2.9,0.8-4c0.5-1.1,1.3-1.9,2.3-2.6c1-0.7,2.1-1.1,3.5-1.4
				c1.3-0.3,2.8-0.4,4.5-0.4c0.4,0,0.7,0,1.1,0s0.8,0,1.2,0.1c0.1-1.1,0.2-2.2,0.2-3.1c0-2.1-0.3-3.6-0.9-4.5
				c-0.6-0.9-1.8-1.3-3.4-1.3c-1,0-2.2,0.2-3.4,0.5c-1.2,0.3-2.2,0.7-3,1.2L427,94.8z M439,108.2c-0.4,0-0.7-0.1-1.1-0.1
				c-0.4,0-0.7,0-1.1,0c-0.9,0-1.7,0.1-2.6,0.2c-0.8,0.1-1.6,0.4-2.3,0.8c-0.7,0.4-1.2,0.9-1.6,1.5s-0.6,1.4-0.6,2.4
				c0,1.5,0.4,2.6,1.1,3.5c0.7,0.8,1.6,1.2,2.8,1.2c1.5,0,2.7-0.4,3.6-1.1c0.8-0.7,1.4-1.6,1.8-2.4V108.2z"/>
			<path fill="#222222" d="M446.7,93.1h3.4v-5.5l4-1.3v6.8h6v3.6h-6v16.6c0,1.6,0.2,2.8,0.6,3.5c0.4,0.7,1,1.1,1.9,1.1
				c0.7,0,1.4-0.1,1.9-0.3c0.5-0.2,1.1-0.4,1.8-0.6l0.8,3.2c-0.8,0.4-1.7,0.7-2.7,1c-1,0.2-2,0.4-3.1,0.4c-1.9,0-3.2-0.6-4-1.8
				c-0.8-1.2-1.2-3.2-1.2-5.9V96.7h-3.4V93.1z"/>
			<path fill="#222222" d="M464.8,84.6c0-0.9,0.3-1.6,0.8-2.2c0.5-0.6,1.2-0.8,2-0.8c0.8,0,1.5,0.3,2,0.8c0.5,0.5,0.8,1.3,0.8,2.2
				c0,0.9-0.3,1.6-0.8,2.1c-0.5,0.5-1.2,0.8-2,0.8c-0.8,0-1.5-0.3-2-0.8C465,86.2,464.8,85.5,464.8,84.6z M465.5,93.1h4v27.8h-4
				V93.1z"/>
			<path fill="#222222" d="M475.7,107c0-5,0.9-8.7,2.6-11c1.7-2.4,4.2-3.5,7.4-3.5c3.4,0,5.9,1.2,7.5,3.6c1.6,2.4,2.4,6.1,2.4,11
				c0,5-0.9,8.7-2.6,11.1c-1.7,2.3-4.2,3.5-7.3,3.5c-3.4,0-5.9-1.2-7.5-3.6C476.5,115.6,475.7,111.9,475.7,107z M479.9,107
				c0,1.6,0.1,3.1,0.3,4.5c0.2,1.3,0.5,2.5,1,3.5c0.5,1,1.1,1.7,1.8,2.3c0.7,0.5,1.6,0.8,2.7,0.8c1.9,0,3.4-0.9,4.3-2.6
				c1-1.7,1.4-4.5,1.4-8.4c0-1.6-0.1-3.1-0.3-4.4c-0.2-1.4-0.5-2.5-1-3.5c-0.5-1-1.1-1.7-1.8-2.3c-0.7-0.5-1.6-0.8-2.7-0.8
				c-1.9,0-3.3,0.9-4.3,2.6C480.4,100.4,479.9,103.2,479.9,107z"/>
			<path fill="#222222" d="M515.2,120.9v-17c0-2.8-0.3-4.8-1-6c-0.6-1.2-1.8-1.9-3.5-1.9c-1.5,0-2.7,0.4-3.7,1.3
				c-1,0.9-1.7,2-2.1,3.3v20.3h-4V93.1h2.9l0.7,2.9h0.2c0.7-1,1.7-1.9,2.9-2.6c1.2-0.7,2.6-1.1,4.3-1.1c1.2,0,2.2,0.2,3.1,0.5
				s1.7,0.9,2.3,1.7c0.6,0.8,1.1,1.9,1.4,3.2c0.3,1.3,0.5,3,0.5,5.1v18H515.2z"/>
		</g>
	</g>
	<g>
		<path fill="#222222" d="M307.2,158.9h-11l-3.1,10.9H289l11.7-39.6h2.3l11.7,39.6h-4.4L307.2,158.9z M297.3,155.2h8.9l-3.4-12.1
			l-1-5.9h-0.1l-1.1,6L297.3,155.2z"/>
		<path fill="#222222" d="M318.3,141.9h2.8l0.7,2.9h0.2c0.5-1.1,1.2-1.9,2-2.5c0.8-0.6,1.8-0.9,3-0.9c0.9,0,1.8,0.2,2.9,0.5
			l-0.8,4.1c-1-0.3-1.8-0.5-2.6-0.5c-1.2,0-2.2,0.3-2.9,1c-0.7,0.7-1.2,1.6-1.4,2.8v20.5h-4V141.9z"/>
		<path fill="#222222" d="M348.9,168.4c-0.9,0.7-2,1.2-3.2,1.6c-1.2,0.3-2.4,0.5-3.7,0.5c-1.8,0-3.3-0.3-4.5-1c-1.2-0.7-2.2-1.7-3-3
			c-0.8-1.3-1.3-2.8-1.7-4.6c-0.4-1.8-0.5-3.8-0.5-6c0-4.7,0.8-8.4,2.5-10.9c1.7-2.5,4.1-3.7,7.3-3.7c1.4,0,2.7,0.1,3.7,0.4
			c1,0.3,1.9,0.6,2.7,1l-1.1,3.5c-1.5-0.9-3.1-1.3-4.8-1.3c-2,0-3.5,0.9-4.5,2.6c-1,1.8-1.5,4.5-1.5,8.3c0,1.5,0.1,2.9,0.3,4.3
			c0.2,1.3,0.6,2.5,1.1,3.5c0.5,1,1.2,1.8,2,2.3c0.8,0.6,1.8,0.9,3.1,0.9c1,0,1.9-0.2,2.7-0.5c0.8-0.3,1.5-0.7,2-1.2L348.9,168.4z"
			/>
		<path fill="#222222" d="M367.6,169.8v-16.9c0-2.6-0.3-4.6-0.9-5.9c-0.6-1.4-1.8-2-3.6-2c-1.3,0-2.5,0.5-3.5,1.4
			c-1.1,0.9-1.8,2.1-2.1,3.5v20h-4v-39h4v13.7h0.2c0.7-1,1.7-1.8,2.8-2.4c1.1-0.6,2.5-0.9,4.1-0.9c1.2,0,2.3,0.2,3.2,0.5
			c0.9,0.3,1.7,0.9,2.3,1.7c0.6,0.8,1,1.9,1.3,3.3c0.3,1.4,0.4,3,0.4,5v18H367.6z"/>
		<path fill="#222222" d="M377.8,133.5c0-0.9,0.3-1.6,0.8-2.2c0.5-0.6,1.2-0.8,2-0.8c0.8,0,1.5,0.3,2,0.8c0.5,0.5,0.8,1.3,0.8,2.2
			c0,0.9-0.3,1.6-0.8,2.1c-0.5,0.5-1.2,0.8-2,0.8c-0.8,0-1.5-0.3-2-0.8C378,135,377.8,134.3,377.8,133.5z M378.5,141.9h4v27.8h-4
			V141.9z"/>
		<path fill="#222222" d="M387.1,141.9h3.4v-5.5l4-1.3v6.8h6v3.6h-6v16.6c0,1.6,0.2,2.8,0.6,3.5c0.4,0.7,1,1.1,1.9,1.1
			c0.7,0,1.4-0.1,1.9-0.3c0.5-0.2,1.1-0.4,1.8-0.6l0.8,3.2c-0.8,0.4-1.7,0.7-2.7,1c-1,0.2-2,0.4-3.1,0.4c-1.9,0-3.2-0.6-4-1.8
			c-0.8-1.2-1.2-3.2-1.2-5.9v-17.1h-3.4V141.9z"/>
		<path fill="#222222" d="M421.4,167.9c-0.9,0.8-2,1.4-3.4,1.9c-1.4,0.4-2.8,0.7-4.3,0.7c-1.7,0-3.3-0.3-4.5-1
			c-1.3-0.7-2.3-1.7-3.2-3c-0.8-1.3-1.4-2.8-1.8-4.6c-0.4-1.8-0.6-3.8-0.6-6c0-4.7,0.9-8.4,2.6-10.9c1.7-2.5,4.2-3.7,7.4-3.7
			c1,0,2.1,0.1,3.1,0.4c1,0.3,1.9,0.8,2.8,1.6c0.8,0.8,1.5,1.9,2,3.3c0.5,1.4,0.8,3.2,0.8,5.5c0,0.6,0,1.3-0.1,2
			c-0.1,0.7-0.1,1.5-0.2,2.3h-14.1c0,1.6,0.1,3,0.4,4.3c0.3,1.3,0.7,2.4,1.2,3.3c0.6,0.9,1.3,1.6,2.1,2.1c0.9,0.5,2,0.8,3.3,0.8
			c1,0,2-0.2,3-0.6c1-0.4,1.7-0.8,2.3-1.3L421.4,167.9z M418.3,153c0.1-2.8-0.3-4.8-1.2-6.1c-0.9-1.3-2-1.9-3.5-1.9
			c-1.7,0-3.1,0.7-4.1,1.9c-1,1.3-1.6,3.3-1.8,6.1H418.3z"/>
		<path fill="#222222" d="M442.7,168.4c-0.9,0.7-2,1.2-3.2,1.6c-1.2,0.3-2.4,0.5-3.7,0.5c-1.8,0-3.3-0.3-4.5-1c-1.2-0.7-2.2-1.7-3-3
			c-0.8-1.3-1.3-2.8-1.7-4.6c-0.4-1.8-0.5-3.8-0.5-6c0-4.7,0.8-8.4,2.5-10.9c1.7-2.5,4.1-3.7,7.3-3.7c1.4,0,2.7,0.1,3.7,0.4
			c1,0.3,1.9,0.6,2.7,1l-1.1,3.5c-1.5-0.9-3.1-1.3-4.8-1.3c-2,0-3.5,0.9-4.5,2.6c-1,1.8-1.5,4.5-1.5,8.3c0,1.5,0.1,2.9,0.3,4.3
			c0.2,1.3,0.6,2.5,1.1,3.5c0.5,1,1.2,1.8,2,2.3c0.8,0.6,1.8,0.9,3.1,0.9c1,0,1.9-0.2,2.7-0.5c0.8-0.3,1.5-0.7,2-1.2L442.7,168.4z"
			/>
		<path fill="#222222" d="M444.4,141.9h3.4v-5.5l4-1.3v6.8h6v3.6h-6v16.6c0,1.6,0.2,2.8,0.6,3.5c0.4,0.7,1,1.1,1.9,1.1
			c0.7,0,1.4-0.1,1.9-0.3c0.5-0.2,1.1-0.4,1.8-0.6l0.8,3.2c-0.8,0.4-1.7,0.7-2.7,1c-1,0.2-2,0.4-3.1,0.4c-1.9,0-3.2-0.6-4-1.8
			c-0.8-1.2-1.2-3.2-1.2-5.9v-17.1h-3.4V141.9z"/>
		<path fill="#222222" d="M466.1,141.9v17c0,2.8,0.3,4.8,0.9,6c0.6,1.2,1.6,1.8,3.1,1.8c0.8,0,1.5-0.2,2.1-0.5
			c0.6-0.3,1.2-0.7,1.6-1.3c0.5-0.5,0.9-1.1,1.3-1.8c0.4-0.7,0.7-1.4,0.9-2.1v-19.3h4v19.9c0,1.3,0,2.7,0.1,4.1
			c0.1,1.4,0.2,2.7,0.4,3.8h-2.8l-1-3.9h-0.2c-0.6,1.2-1.5,2.3-2.7,3.2c-1.2,0.9-2.7,1.4-4.5,1.4c-1.2,0-2.2-0.1-3.1-0.4
			c-0.9-0.3-1.7-0.8-2.3-1.6c-0.6-0.8-1.1-1.8-1.4-3.2c-0.3-1.4-0.5-3.1-0.5-5.2v-18H466.1z"/>
		<path fill="#222222" d="M486.6,141.9h2.8l0.7,2.9h0.2c0.5-1.1,1.2-1.9,2-2.5c0.8-0.6,1.8-0.9,3-0.9c0.9,0,1.8,0.2,2.9,0.5
			l-0.8,4.1c-1-0.3-1.8-0.5-2.6-0.5c-1.2,0-2.2,0.3-2.9,1c-0.7,0.7-1.2,1.6-1.4,2.8v20.5h-4V141.9z"/>
		<path fill="#222222" d="M518.5,167.9c-0.9,0.8-2,1.4-3.4,1.9c-1.4,0.4-2.8,0.7-4.3,0.7c-1.7,0-3.3-0.3-4.5-1
			c-1.3-0.7-2.3-1.7-3.2-3c-0.8-1.3-1.4-2.8-1.8-4.6c-0.4-1.8-0.6-3.8-0.6-6c0-4.7,0.9-8.4,2.6-10.9c1.7-2.5,4.2-3.7,7.4-3.7
			c1,0,2.1,0.1,3.1,0.4c1,0.3,1.9,0.8,2.8,1.6c0.8,0.8,1.5,1.9,2,3.3c0.5,1.4,0.8,3.2,0.8,5.5c0,0.6,0,1.3-0.1,2
			c-0.1,0.7-0.1,1.5-0.2,2.3h-14.1c0,1.6,0.1,3,0.4,4.3c0.3,1.3,0.7,2.4,1.2,3.3c0.6,0.9,1.3,1.6,2.1,2.1c0.9,0.5,2,0.8,3.3,0.8
			c1,0,2-0.2,3-0.6c1-0.4,1.7-0.8,2.3-1.3L518.5,167.9z M515.4,153c0.1-2.8-0.3-4.8-1.2-6.1c-0.9-1.3-2-1.9-3.5-1.9
			c-1.7,0-3.1,0.7-4.1,1.9c-1,1.3-1.6,3.3-1.8,6.1H515.4z"/>
	</g>
	<g>
		<path fill="#222222" d="M365,178.7h4.2v39H365V178.7z"/>
		<path fill="#222222" d="M391.1,217.7v-17c0-2.8-0.3-4.8-1-6c-0.6-1.2-1.8-1.9-3.5-1.9c-1.5,0-2.7,0.4-3.7,1.3
			c-1,0.9-1.7,2-2.1,3.3v20.3h-4v-27.8h2.9l0.7,2.9h0.2c0.7-1,1.7-1.9,2.9-2.6c1.2-0.7,2.6-1.1,4.3-1.1c1.2,0,2.2,0.2,3.1,0.5
			s1.7,0.9,2.3,1.7c0.6,0.8,1.1,1.9,1.4,3.2c0.3,1.3,0.5,3,0.5,5.1v18H391.1z"/>
		<path fill="#222222" d="M400.9,213.1c0.7,0.4,1.6,0.8,2.6,1.1c1,0.3,2.1,0.5,3.1,0.5c1.2,0,2.3-0.3,3.1-0.9c0.9-0.6,1.3-1.6,1.3-3
			c0-1.2-0.3-2.1-0.8-2.9c-0.5-0.7-1.2-1.4-2-2c-0.8-0.6-1.7-1.1-2.6-1.6s-1.8-1.1-2.6-1.8c-0.8-0.7-1.5-1.5-2-2.5
			c-0.5-1-0.8-2.2-0.8-3.7c0-2.4,0.6-4.1,1.9-5.4c1.3-1.2,3.1-1.8,5.4-1.8c1.5,0,2.8,0.1,4,0.4c1.1,0.3,2.1,0.7,2.9,1.1l-1.1,3.3
			c-0.7-0.4-1.5-0.7-2.4-0.9c-0.9-0.2-1.9-0.4-2.8-0.4c-1.3,0-2.3,0.3-2.9,0.8c-0.6,0.6-0.9,1.4-0.9,2.6c0,0.9,0.3,1.7,0.8,2.4
			c0.5,0.6,1.2,1.2,2,1.8c0.8,0.5,1.7,1.1,2.6,1.6c0.9,0.6,1.8,1.2,2.6,2c0.8,0.8,1.5,1.7,2,2.7c0.5,1.1,0.8,2.4,0.8,4
			c0,1-0.2,2-0.5,3c-0.3,0.9-0.8,1.7-1.5,2.4c-0.7,0.7-1.5,1.2-2.6,1.6c-1,0.4-2.2,0.6-3.6,0.6c-1.6,0-3-0.2-4.2-0.5
			c-1.2-0.3-2.2-0.7-3-1.3L400.9,213.1z"/>
		<path fill="#222222" d="M417.4,189.9h3.4v-5.5l4-1.3v6.8h6v3.6h-6v16.6c0,1.6,0.2,2.8,0.6,3.5c0.4,0.7,1,1.1,1.9,1.1
			c0.7,0,1.4-0.1,1.9-0.3c0.5-0.2,1.1-0.4,1.8-0.6l0.8,3.2c-0.8,0.4-1.7,0.7-2.7,1c-1,0.2-2,0.4-3.1,0.4c-1.9,0-3.2-0.6-4-1.8
			c-0.8-1.2-1.2-3.2-1.2-5.9v-17.1h-3.4V189.9z"/>
		<path fill="#222222" d="M435.4,181.4c0-0.9,0.3-1.6,0.8-2.2c0.5-0.6,1.2-0.8,2-0.8c0.8,0,1.5,0.3,2,0.8c0.5,0.5,0.8,1.3,0.8,2.2
			c0,0.9-0.3,1.6-0.8,2.1c-0.5,0.5-1.2,0.8-2,0.8c-0.8,0-1.5-0.3-2-0.8C435.6,182.9,435.4,182.3,435.4,181.4z M436.1,189.9h4v27.8
			h-4V189.9z"/>
		<path fill="#222222" d="M444.7,189.9h3.4v-5.5l4-1.3v6.8h6v3.6h-6v16.6c0,1.6,0.2,2.8,0.6,3.5c0.4,0.7,1,1.1,1.9,1.1
			c0.7,0,1.4-0.1,1.9-0.3c0.5-0.2,1.1-0.4,1.8-0.6l0.8,3.2c-0.8,0.4-1.7,0.7-2.7,1c-1,0.2-2,0.4-3.1,0.4c-1.9,0-3.2-0.6-4-1.8
			c-0.8-1.2-1.2-3.2-1.2-5.9v-17.1h-3.4V189.9z"/>
		<path fill="#222222" d="M466.4,189.9v17c0,2.8,0.3,4.8,0.9,6c0.6,1.2,1.6,1.8,3.1,1.8c0.8,0,1.5-0.2,2.1-0.5
			c0.6-0.3,1.2-0.7,1.6-1.3c0.5-0.5,0.9-1.1,1.3-1.8c0.4-0.7,0.7-1.4,0.9-2.1v-19.3h4v19.9c0,1.3,0,2.7,0.1,4.1
			c0.1,1.4,0.2,2.7,0.4,3.8h-2.8l-1-3.9h-0.2c-0.6,1.2-1.5,2.3-2.7,3.2c-1.2,0.9-2.7,1.4-4.5,1.4c-1.2,0-2.2-0.1-3.1-0.4
			c-0.9-0.3-1.7-0.8-2.3-1.6c-0.6-0.8-1.1-1.8-1.4-3.2c-0.3-1.4-0.5-3.1-0.5-5.2v-18H466.4z"/>
		<path fill="#222222" d="M484.2,189.9h3.4v-5.5l4-1.3v6.8h6v3.6h-6v16.6c0,1.6,0.2,2.8,0.6,3.5c0.4,0.7,1,1.1,1.9,1.1
			c0.7,0,1.4-0.1,1.9-0.3c0.5-0.2,1.1-0.4,1.8-0.6l0.8,3.2c-0.8,0.4-1.7,0.7-2.7,1c-1,0.2-2,0.4-3.1,0.4c-1.9,0-3.2-0.6-4-1.8
			c-0.8-1.2-1.2-3.2-1.2-5.9v-17.1h-3.4V189.9z"/>
		<path fill="#222222" d="M518.5,215.8c-0.9,0.8-2,1.4-3.4,1.9s-2.8,0.7-4.3,0.7c-1.7,0-3.3-0.3-4.5-1c-1.3-0.7-2.3-1.7-3.2-3
			c-0.8-1.3-1.4-2.8-1.8-4.6c-0.4-1.8-0.6-3.8-0.6-6c0-4.7,0.9-8.4,2.6-10.9c1.7-2.5,4.2-3.7,7.4-3.7c1,0,2.1,0.1,3.1,0.4
			c1,0.3,1.9,0.8,2.8,1.6c0.8,0.8,1.5,1.9,2,3.3c0.5,1.4,0.8,3.2,0.8,5.5c0,0.6,0,1.3-0.1,2c-0.1,0.7-0.1,1.5-0.2,2.3h-14.1
			c0,1.6,0.1,3,0.4,4.3c0.3,1.3,0.7,2.4,1.2,3.3c0.6,0.9,1.3,1.6,2.1,2.1c0.9,0.5,2,0.8,3.3,0.8c1,0,2-0.2,3-0.6
			c1-0.4,1.7-0.8,2.3-1.3L518.5,215.8z M515.4,200.9c0.1-2.8-0.3-4.8-1.2-6.1c-0.9-1.3-2-1.9-3.5-1.9c-1.7,0-3.1,0.7-4.1,1.9
			c-1,1.3-1.6,3.3-1.8,6.1H515.4z"/>
	</g>
</g>
</svg>
