<?xml version="1.0" encoding="utf-8"?>
<!-- Generator: Adobe Illustrator 18.0.0, SVG Export Plug-In . SVG Version: 6.00 Build 0)  -->
<!DOCTYPE svg PUBLIC "-//W3C//DTD SVG 1.1//EN" "http://www.w3.org/Graphics/SVG/1.1/DTD/svg11.dtd">
<svg version="1.1" id="Layer_1" xmlns="http://www.w3.org/2000/svg" xmlns:xlink="http://www.w3.org/1999/xlink" x="0px" y="0px"
	 viewBox="162.4 1031.2 600 300" enable-background="new 162.4 1031.2 600 300" xml:space="preserve">
<g>
	<path fill="#222222" d="M249.6,1117.5h-76.5c-6,0-10.7,4.7-10.7,10.7v106c0,5.7,4.7,10.7,10.7,10.7h76.5c5.7,0,10.7-4.7,10.7-10.7
		v-106C260.1,1122.1,255.3,1117.5,249.6,1117.5z M256.1,1234.2c0,3.5-3,6.5-6.5,6.5h-76.5c-3.5,0-6.5-3-6.5-6.5v-106
		c0-3.5,3-6.5,6.5-6.5h76.5c3.5,0,6.5,3,6.5,6.5V1234.2z"/>
	<path fill="#222222" d="M240.6,1187.3h-11.8c-0.8,0-1.7,0.5-1.8,1.3l-4.2,12l-4-12.2c0-0.3,0-0.3-0.3-0.5l0,0l0,0
		c-0.3-0.3-0.3-0.3-0.5-0.5c0,0,0,0-0.3,0c-0.3,0-0.5-0.3-0.8-0.3h-11.7c-0.3,0-0.5,0-0.8,0.3c0,0,0,0-0.3,0c-0.3,0-0.5,0.3-0.5,0.5
		l0,0l0,0c0,0.3-0.3,0.3-0.3,0.5l-4.2,12l-4.2-12c-0.3-0.8-1.2-1.3-1.8-1.3h-11c-0.5,0-1.2,0.3-1.7,0.8c-0.3,0.5-0.5,1.2-0.3,1.7
		l11.7,35.2c0,0,0,0.3,0.3,0.3l0,0l0,0c0.3,0.3,0.3,0.3,0.5,0.5c0,0,0,0,0.3,0c0.3,0,0.5,0.3,0.8,0.3l0,0l0,0h11.7l0,0l0,0
		c0.3,0,0.5,0,0.8-0.3h0.3c0.3,0,0.5-0.3,0.5-0.5l0,0l0,0l0.3-0.3l4.2-12l4.2,12c0,0.3,0.3,0.3,0.3,0.5l0,0l0,0
		c0.3,0.3,0.3,0.3,0.5,0.5c0,0,0,0,0.3,0c0.3,0,0.5,0.3,0.8,0.3h11.7c0.3,0,0.5,0,0.8-0.3c0,0,0,0,0.3,0c0.3,0,0.5-0.3,0.5-0.5l0,0
		l0,0c0-0.3,0.3-0.3,0.3-0.5l11.7-35.2c0.3-0.5,0-1.3-0.3-1.7C242,1187.5,241.1,1187.3,240.6,1187.3z M214.5,1191.3l-3.2,9.5
		l-3.2-9.5H214.5z M192.3,1191.3l5.2,15.5l-3.8,11.5l-9-27H192.3L192.3,1191.3z M196.3,1222.5l3.2-9.5l3.2,9.5H196.3z M205.5,1218.3
		l-3.8-11.3l3.8-11.5l3.8,11.5L205.5,1218.3z M217.1,1195.5l3.8,11.5l-3.8,11.5l-3.8-11.5L217.1,1195.5z M219.8,1222.5l3.2-9.5
		l3.2,9.5H219.8z M228.8,1218.3l-3.8-11.5l5.2-15.5h7.8L228.8,1218.3z"/>
	<path fill="#222222" d="M180.3,1166.8c0.3,0.3,0.3,0.5,0.5,0.5l0,0l0,0l0,0L210,1182c0.3,0,0.5,0.3,0.8,0.3c0.3,0,0.5,0,0.8-0.3
		l29.7-14.3l0,0l0,0l0,0c0.3-0.3,0.5-0.3,0.5-0.5l0,0c0-0.3,0.3-0.5,0.3-0.8v-14.8c0-0.3,0-0.5-0.3-0.8l0,0
		c-0.3-0.3-0.3-0.5-0.5-0.5l0,0l0,0l0,0l-29.2-15.7h-0.3c-0.3,0-0.3,0-0.5,0c-0.3,0-0.3,0-0.5,0h-0.2l-29.3,14.8l0,0l0,0l0,0
		c-0.3,0.3-0.5,0.3-0.5,0.5l0,0c0,0.3-0.3,0.5-0.3,0.8v14.7C180.1,1166,180.1,1166.2,180.3,1166.8L180.3,1166.8z M192.3,1158.3
		l-8.5,4.2v-8.5L192.3,1158.3z M196.6,1160.6l12.8,6.2v10.3l-22.8-11.5L196.6,1160.6z M211.1,1153.1l10.3,5.2l-10.3,5.2l-10-5.2
		L211.1,1153.1z M238.6,1154.1v8.5l-8.5-4.3L238.6,1154.1z M225.8,1156.1L213,1150v-10.3l22.8,11.5L225.8,1156.1z M213.3,1167
		l12.8-6.2l10.3,5.2l-22.8,11.5v-10.3h-0.3V1167z M209.1,1149.8l-12.8,6.2l-10.3-5.2l22.8-11.5v10.3
		C208.8,1149.8,209.1,1149.8,209.1,1149.8z"/>
	<g>
		<path fill="#222222" d="M305.5,1159.6c-2.7,0-5.5,0.5-8.2,1.7c-2.5,1.2-4.7,2.5-6.2,4.3c-3.5,3.8-5.2,8.8-5.2,15
			c0,6.2,1.7,11.2,5.2,15.3c1.7,1.8,3.8,3.5,6.2,4.7c2.5,1.2,5.2,1.7,8.2,1.7s5.5-0.3,7.7-1.2c4.2-1.3,7-4.2,9.5-7.7
			c2.2-3.5,3.2-7.7,3.2-12.5c0-4.7-1.2-8.8-3.2-12.3C318.8,1162.7,313,1159.6,305.5,1159.6z M316.3,1192.7
			c-2.5,3.5-6.2,5.2-11.2,5.2c-2.7,0-5.2-0.8-7.3-2.2c-4.3-3-6.5-7.8-6.5-14.7s2.2-11.7,6.5-14.3c2.2-1.3,5-2.2,7.8-2.2
			s5.7,0.8,7.8,2.2c4.3,3,6.5,7.8,6.5,14.3C320.2,1185.3,318.8,1189.3,316.3,1192.7z"/>
		<path fill="#222222" d="M350.8,1175c-1.8-1.3-3.8-1.8-6.2-1.8c-3,0-5.7,1.3-7.8,3.8v-3.2h-5v42.2h5v-15c2.2,0.5,4.3,0.8,6,0.8
			c4.2,0,7.3-1.3,9.8-4.3c2.7-3,4.2-6.5,4.2-11.2c0-2.2-0.5-4.3-1.3-6.5C354.2,1178,352.8,1176.3,350.8,1175z M348.8,1194.8
			c-1.8,2.2-4.3,3.2-7,3.2c-1.7,0-3.2-0.5-5-1.3V1182c0.8-1.7,1.8-2.7,3.2-3.8c1.3-1.2,2.7-1.3,4.2-1.3c2.2,0,4.2,0.8,5.5,2.7
			c1.3,1.8,2.2,4.3,2.2,7.3C351.8,1190.2,350.8,1192.7,348.8,1194.8z"/>
		<path fill="#222222" d="M372.2,1198.2c-0.8,0-1.8-0.3-2.5-1.2c-0.8-0.5-1.2-1.7-1.2-3.2v-16.5h6.8v-3.8h-6.8v-7.3l-4.7,1.8v5.7
			h-5.5v3.5h5v16.7c0,5.2,2.5,7.8,7,7.8c2.5,0,4.7-0.3,6.2-1.2l-0.5-3.2C375.2,1197.8,373.8,1198.2,372.2,1198.2z"/>
		<polygon fill="#222222" points="379.8,1177.3 384.8,1177.3 384.8,1201.3 389.7,1201.3 389.7,1173.5 379.8,1173.5 		"/>
		<path fill="#222222" d="M387.2,1159.1c-1.2,0-1.8,0.3-2.5,1.2c-0.5,0.8-1.2,1.7-1.2,2.5c0,1.2,0.3,1.8,1.2,2.5
			c0.8,0.8,1.7,1.2,2.5,1.2c1.2,0,1.8-0.3,2.5-1.2c0.8-0.8,1.2-1.7,1.2-2.5c0-1.2-0.3-1.8-1.2-2.5
			C388.8,1159.5,388,1159.1,387.2,1159.1z"/>
		<path fill="#222222" d="M428.3,1173c-3.8,0-6.5,2.2-8.2,6.5c-1.3-4.3-4.3-6.5-9-6.5c-1.7,0-3.2,0.5-4.3,1.3
			c-1.2,0.8-2.2,2.2-2.7,3.5v-4.3h-4.7v27.8h4.7V1185c0-1.3,0.3-2.7,0.8-3.8c0.5-1.2,1.2-2.2,2.2-3c0.8-0.8,1.8-1.3,3-1.3
			c4.3,0,6.2,3.5,6.2,10.7v13.8h4.7V1185c0-1.3,0.3-2.7,0.8-3.8s1.2-2.2,2.2-3c0.8-0.8,1.8-1.3,3-1.3c4.2,0,6.2,3.5,6.2,10.7v13.8
			h4.7v-13.8c0-4.7-0.8-8.5-2.5-10.7C434.2,1174.5,431.7,1173,428.3,1173z"/>
		<path fill="#222222" d="M466,1187.5c0-3.8-0.3-6.2-0.5-7.7c-0.5-2.2-1.7-3.8-3.2-5c-1.7-1.2-3.5-1.7-6-1.7c-2.2,0-5.2,0.5-8.8,1.8
			l0.3,3.8c2.7-1.3,5.2-1.8,7.3-1.8c2.2,0,3.8,0.5,5,1.3c0.8,0.8,1.3,2.2,1.3,4.3v2.7H461c-3.8,0-6.8,0.5-9.3,1.3
			c-4.2,1.7-6,4.2-6,7.3c0,1.3,0.3,2.5,1.2,3.8c1.3,2.5,3.8,3.8,7.3,3.8c2.2,0,4.2-0.5,6-1.8c0.5-0.5,1.2-0.8,1.7-1.7v0.3
			c0,1.2,0,1.8,0.3,2.7h5c-0.3-1.3-0.5-3-0.5-4.7v-9.3L466,1187.5L466,1187.5z M461.2,1191.3c-0.3,4.7-2.7,6.8-6.8,6.8h-1.2
			c-0.8,0-1.3-0.5-2.2-1.3c-0.5-0.8-0.8-1.7-0.8-2.7c0-3.5,3.5-5.5,10.8-5.5h0.3v2.7L461.2,1191.3L461.2,1191.3z"/>
		<path fill="#222222" d="M481.5,1198.2c-0.5,0-1.2-0.3-1.7-1.2c-0.5-0.5-0.8-1.7-0.8-3.2v-36h-4.7v36.3c0,5.2,2.2,7.8,6.2,7.8
			c1.3,0,3-0.3,5-0.5l-0.3-3.5C483.2,1198.2,482,1198.2,481.5,1198.2z"/>
		<polygon fill="#222222" points="546.4,1194 535.7,1160.3 532.7,1160.3 522.2,1194 511.5,1160.3 506,1160.3 519.7,1201.3 
			524.4,1201.3 534.2,1171.5 543.9,1201.3 548.5,1201.3 562.2,1160.3 557.4,1160.3 		"/>
		<path fill="#222222" d="M586.4,1175c-2.2-1.3-4.7-1.8-7.3-1.8s-5.2,0.5-7.3,1.8c-3.8,2.5-5.7,6.5-5.7,12.5c0,4.2,0.8,7.3,2.7,9.8
			c0.8,1.2,1.8,1.8,3,2.7c2.2,1.3,4.7,1.8,7.3,1.8s5.2-0.5,7.3-1.8c3.8-2.2,5.7-6.5,5.7-12.5c0-4.2-0.8-7.3-2.7-9.8
			C588.7,1176.7,587.6,1175.8,586.4,1175z M584.9,1196c-1.7,1.7-3.5,2.2-5.7,2.2c-1.2,0-2.2-0.3-3-0.5c-0.8-0.3-1.8-0.8-2.7-1.7
			c-0.8-0.8-1.3-1.8-1.8-3.2c-0.5-1.3-0.8-3-0.8-5c0-3.8,0.8-6.5,2.7-8.5c1.7-1.3,3.5-2.2,5.7-2.2c2.2,0,4.2,0.8,5.7,2.2
			c1.7,1.7,2.7,4.3,2.7,8.5C587.2,1191.3,586.4,1194,584.9,1196z"/>
		<path fill="#222222" d="M615.4,1174.2c-1.2-0.5-2.5-0.8-4.2-0.8c-1.7,0-3.2,0.5-4.3,1.7c-1.3,1.2-2.5,2.5-3,4.2v-5.2h-4.7v27.7
			h4.7v-16.2c0-1.3,0.5-2.7,1.2-4.2c0.5-1.3,1.7-2.5,2.7-3.2c1-0.7,2.5-1.3,3.8-1.3s2.5,0.3,3.2,1.2c0.3,0.3,0.5,0.5,0.8,0.8l1.8-3
			C617.1,1175.3,616.4,1174.7,615.4,1174.2z"/>
		<polygon fill="#222222" points="643.4,1173.5 637.7,1173.5 628.2,1182.8 628.2,1157.8 623.6,1157.8 623.6,1201.3 628.2,1201.3 
			628.2,1187.3 639.6,1201.3 645.6,1201.3 632.1,1184.8 		"/>
		<path fill="#222222" d="M661.2,1185.8l-3-1.2c-1.8-0.5-3.2-1.3-3.8-1.8c-0.5-0.5-0.8-1.3-0.8-2.5c0-0.8,0.5-1.8,1.3-2.5
			c0.8-0.8,1.8-1.2,3.2-1.2s2.5,0.3,3.5,0.5c1.2,0.5,1.8,0.8,2.7,1.3l1.7-3.5c-0.8-0.5-1.8-1.2-3.2-1.7c-1.3-0.5-3-0.8-4.7-0.8
			c-2.7,0-5,0.8-6.5,2.5c-1.7,1.7-2.5,3.2-2.5,5.2s0.5,3.5,1.3,5c1.2,1.3,2.5,2.5,4.7,3l3,1.2c3.2,1.2,5,2.5,5,4.3
			c0,3-1.7,4.3-5.2,4.3c-1.3,0-2.7-0.3-3.8-0.5c-1.2-0.3-2.5-1.2-3.8-1.8l-1.7,3.5c1.8,1.2,3.5,1.7,5,2.2c1.3,0.3,3,0.5,4.7,0.5
			c3,0,5.5-0.8,7-2.2c1.5-1.3,2.7-3.2,2.7-5.7c0-2.2-0.5-4.2-1.7-5.2C665.1,1187.8,663.2,1186.7,661.2,1185.8z"/>
		<path fill="#222222" d="M691.9,1174.2c-1.3-0.8-2.7-1.2-4.3-1.2c-4.2,0-6.8,1.8-8.8,5.7v-21h-4.7v43.7h4.7v-17.2
			c0-0.5,0.3-1.2,0.5-1.7c0.8-2.2,1.8-3.8,3.5-4.7c1.2-0.5,1.8-0.8,3.2-0.8c4.7,0,6.8,3.2,6.8,9.5v15h4.7v-16.7
			c0-3.5-0.8-6.2-2.7-8.2C694.1,1175.8,693.4,1175,691.9,1174.2z"/>
		<path fill="#222222" d="M724.9,1175c-2.2-1.3-4.7-1.8-7.3-1.8c-2.7,0-5.2,0.5-7.3,1.8c-3.8,2.5-5.7,6.5-5.7,12.5
			c0,4.2,0.8,7.3,2.7,9.8c0.8,1.2,1.8,1.8,3,2.7c2.2,1.3,4.7,1.8,7.3,1.8s5.2-0.5,7.3-1.8c3.8-2.2,5.7-6.5,5.7-12.5
			c0-4.2-0.8-7.3-2.7-9.8C726.9,1176.7,726.1,1175.8,724.9,1175z M723.1,1196c-1.7,1.7-3.5,2.2-5.7,2.2c-1.2,0-2.2-0.3-3-0.5
			c-1.2-0.3-1.8-0.8-2.7-1.7c-0.8-0.8-1.3-1.8-1.8-3.2c-0.5-1.3-0.8-3-0.8-5c0-3.8,0.8-6.5,2.7-8.5c1.7-1.3,3.5-2.2,5.7-2.2
			c2.2,0,4.2,0.8,5.7,2.2c1.7,1.7,2.7,4.3,2.7,8.5C725.8,1191.3,724.9,1194,723.1,1196z"/>
		<path fill="#222222" d="M760.6,1180c-1.2-1.8-2.5-3.5-4.3-5c-1.8-1.3-3.8-1.8-6.2-1.8c-3,0-5.7,1.3-7.8,3.8v-3.2h-5v42.2h5v-15
			c2.2,0.5,4.3,0.8,6,0.8c4.2,0,7.3-1.3,10-4.3c2.7-3,4.2-6.5,4.2-11.2C762.1,1184.3,761.4,1182,760.6,1180z M754.1,1194.8
			c-1.8,2.2-4.3,3.2-7,3.2c-1.7,0-3.2-0.5-5-1.3V1182c0.8-1.7,1.8-2.7,3.2-3.8c1.3-1.2,2.7-1.3,4.2-1.3c2.2,0,4.2,0.8,5.5,2.7
			c1.3,1.8,2.2,4.3,2.2,7.3C757.4,1190.2,756.3,1192.7,754.1,1194.8z"/>
	</g>
</g>
</svg>
