<?xml version="1.0" encoding="utf-8"?>
<!-- Generator: Adobe Illustrator 18.0.0, SVG Export Plug-In . SVG Version: 6.00 Build 0)  -->
<!DOCTYPE svg PUBLIC "-//W3C//DTD SVG 1.1//EN" "http://www.w3.org/Graphics/SVG/1.1/DTD/svg11.dtd">
<svg version="1.1" id="Layer_1" xmlns="http://www.w3.org/2000/svg" xmlns:xlink="http://www.w3.org/1999/xlink" x="0px" y="0px"
	 viewBox="0 0 600 300" enable-background="new 0 0 600 300" xml:space="preserve">
<g id="O4ak18_1_">
	<g>
		<path fill="#222222" d="M62.6,141.7c-8-3.4-16.1-6.8-24.1-10.2c-3.1-1.3-6.3-2.7-9.4-4c-0.7-0.3-0.9-0.6-0.7-1.3
			c0.4-1,1.1-2.2,0.8-3c-0.2-0.7-1.8-0.9-2.7-1.3c-2.4-1.2-4.6-2.7-6-5.1c-0.4-0.8-0.8-1.5-0.8-2.4c0-1.5,0.7-2.5,2.1-3
			c1.5-0.5,2.9-0.2,4.3,0.1c2.3,0.5,4.5,1.4,6.8,2.1c0.9,0.2,1.3,0.3,1.5-0.9c0.3-1.9,1.2-2.3,3-1.6c1.6,0.6,3.2,1.2,4.9,1.8
			c0.4,0.1,0.7,0.3,0.9-0.4c0.6-2.2,1.8-2.8,4-1.9c6.4,2.7,12.7,5.4,19.1,8.1c7.2,3,14.3,6.4,21.3,10c0.8,0.4,1.7,0.8,2.7,1
			c0.2-0.6-0.2-1-0.4-1.5c-2.4-5.5-4.7-11.1-7.1-16.6c-0.1-0.2-0.2-0.5-0.3-0.7c0.1,0,0.1,0,0.2,0c0,0-0.1-0.1-0.1-0.1
			c0,0.1-0.1,0.1-0.1,0.2c-2-5.7-4.7-11.1-7-16.7c-2.7-6.6-5.5-13.1-8.3-19.6c-0.2-0.4-0.3-0.7-0.4-1.1c-0.2-0.8,0.1-1.5,0.9-2
			c0.8-0.4,1.6-0.4,2.3,0.2c0.4,0.4,0.7,1,1.1,1.4c0.1,0.2,0.2,0.3,0.3,0.5c0.1,0.1,0,0.5,0.3,0.3c0.2-0.1,0-0.4-0.1-0.5
			c-0.1-0.2-0.1-0.3-0.2-0.5c-0.6-1.6-1.2-3.1-1.8-4.7c-0.5-1.2-0.8-2.3-0.7-3.6c0.1-1,0.3-1.9,1.3-2.4c0.9-0.4,1.7,0,2.5,0.6
			c0.2,0.1,0.3,0.4,0.6,0.3c0.1-1.5-0.4-3.3,1.3-4.3c1.1-0.6,2.1,0.1,3,0.7c0.1,0.1,0.2,0.3,0.3,0.2c0.1-0.1,0.1-0.3-0.1-0.4
			c-0.9-2.5-1.9-5.1-2.8-7.6c-0.6-1.6-1.1-3.3-0.6-5.1c0.6-2.5,2.9-3.5,5.1-2.1c1.3,0.8,2.1,2,2.7,3.4c2.1,5.2,4.3,10.3,6.5,15.5
			c0.2,0.5,0.2,1.3,1.2,1.2c0.3-0.1,0.4,0.5,0.5,0.8c1.8,3.8,3.6,7.6,5.4,11.4c0.3,0.7,0.5,1.5,1.4,1.6c0.1,0.2,0.2,0.5,0.4,0.7
			c0.1,0.2,0.2,0.4,0.2,0.6c1.1,2.4,2.2,4.8,3.3,7.2c0.1,0,0.1-0.1,0.2-0.1c-1.1-2.5-2.2-4.9-3.2-7.4c-0.1-0.2-0.2-0.3-0.2-0.5
			c-0.1-0.2-0.2-0.5-0.3-0.7c-2.6-5.9-5.1-11.9-7.7-17.8c-1.8-4.1-3.6-8.2-5.4-12.3c-0.3-0.8-0.2-1.1,0.5-1.4
			c2.7-1.2,2.5-1.1,3.9,1.3c4.9,8.5,8.4,17.6,12.7,26.4c0.2,0.4,0.4,0.8,0.8,1.1c-0.3-2.4-0.6-4.9-0.9-7.3
			c-0.7-5.2-1.1-10.5-1.9-15.7c-0.3-2-0.2-3.9,0.9-5.8c2.2-3.7,6.4-4.1,9.1-0.8c1.9,2.3,2.9,5.1,3.5,8c1.5,6.9,2.8,13.8,3.8,20.9
			c0.4-0.6,0.4-1.2,0.4-1.7c-0.3-5.2-0.6-10.3-0.9-15.5c-0.1-1.8,0.2-3.4,1.3-4.9c1.4-1.8,3.3-1.7,4.6,0.1c1,1.3,1.2,2.9,1,4.4
			c-0.6,6-1.1,12-2,18c-0.6,4.5-0.3,8.9,0,13.3c0.4,7.6,0.8,15.1,1.3,22.7c0.1,1.7,0.2,3.4,0.2,5.2c0,1,0.3,1.8,0.9,2.7
			c0-1.9,0.1-3.8,0-5.6c-0.2-5.6-0.6-11.3-0.8-16.9c-0.1-1.6,1-2.5,2.8-2.5c1.8,0,2.8,0.9,2.7,2.5c-0.1,4-0.2,8-0.3,12
			c0,0.8,0,1.4,1.1,1.3c1-0.1,1.6,0.4,1.6,1.6c-0.1,2.8,0,5.6,0,8.3c0.1,0,0.3,0.1,0.4,0.1c2.1-1.8,4.2-3.7,6.2-5.5
			c5.9-5.2,12.1-10,17.7-15.6c6-5.9,12.6-11.1,18.6-16.9c2.2-2.1,4.2-4.4,6.3-6.6c0.1-0.2,0.3-0.3,0.4-0.5c1-1,2.4-1.2,3.3-0.6
			c0.9,0.6,1,1.6,0.3,3.2c0,0.1-0.1,0.2-0.1,0.3c-0.1,0.1-0.1,0.1-0.2,0.2c0,0,0.1,0,0.1,0.1c0-0.1,0.1-0.1,0.1-0.2
			c0.1-0.1,0.2-0.1,0.4-0.2c0.9-0.4,1.7-0.8,2.6-1c2.3-0.4,4.1,1.1,4.1,3.4c0,1.7-0.7,3-1.8,4.1c-3,3.1-6,6.3-9.1,9.4
			c-11.9,11.9-23.7,23.8-35.8,35.5c-0.1,0.1-0.2,0.3-0.3,0.4c-0.1,0.1-0.1,0.1-0.2,0.2c-0.1,0.1-0.2,0.2-0.3,0.3
			c-0.1,0.1-0.3,0.3-0.4,0.4c-0.1,0.1-0.2,0.2-0.3,0.3c-0.1,0.1-0.2,0.2-0.3,0.3c-0.1,0.1-0.2,0.2-0.3,0.3c-0.7,0.5-1.5,0.9-1.7,1.9
			c-0.1,0-0.1,0-0.2-0.1c0,0.1,0,0.1,0,0.2c0.1,0,0.1-0.1,0.2-0.1c0.6-0.6,1.3-1.1,1.9-1.7c0.1-0.1,0.2-0.2,0.3-0.3
			c0.1-0.1,0.2-0.2,0.3-0.3c0.1-0.1,0.1-0.1,0.2-0.2c0.1-0.1,0.3-0.3,0.4-0.4c0.1-0.1,0.2-0.2,0.3-0.2c0.1-0.1,0.2-0.2,0.3-0.2
			c4.5-3.9,9-7.8,13.5-11.7c9.9-8.6,19.6-17.3,29.6-25.7c1.6-1.3,3.2-2.6,5-3.7c1.1-0.7,2.4-1.4,3.8-0.6c2.2,1.1,2.7,2.9,1.4,5.2
			c-0.9,1.7-2.1,3.1-3.3,4.6c-0.8,1-1.7,1.9-2.6,2.9c-0.1,0.1-0.2,0.2-0.4,0.3c-0.1,0.1-0.2,0.2-0.3,0.2c-0.1,0.1-0.4,0.1-0.2,0.3
			c0.1,0.1,0.3,0,0.4-0.2c0.1,0,0.2-0.1,0.4-0.1c0.2-0.1,0.3-0.2,0.5-0.3c5.1-2.1,10.1-4.4,15.5-5.7c1.6-0.4,3.3-0.5,5-0.5
			c1.7,0,2.8,0.9,3.5,2.4c0.8,1.7,0.3,3.2-0.8,4.5c-1,1.2-2.4,1.9-3.8,2.6c-0.2,0.1-0.6,0.2-0.4,0.5c0.1,0.2,0.3,0.6,0.7,0.2l0,0
			c0.2,1.1,0.7,2.2,0.5,3.4l0,0c-0.4,0-0.6,0.2-0.3,0.5l0,0c-0.7,0.2-1.5,0.4-1.1,1.4c-0.2,0-0.3,0.1-0.5,0.1
			c0.1-0.2,0.6-0.4,0.3-0.6c-0.5-0.2-0.8,0.2-1,0.7c0.2-0.1,0.5-0.1,0.7-0.2c-4.2,2.6-8.3,5.4-12.2,8.4c-13,10-25.4,20.7-37.8,31.4
			c-0.5,0.5-1.1,0.9-1.8,1.2c1-0.9,1.9-1.8,2.9-2.7c1.7-1.5,3.3-3.1,5-4.5c1.5-1.2,2.8-2.6,3.9-4.1c2.2-3,5.2-4.9,7.8-7.3
			c8.2-7.2,16.5-14.3,25.5-20.4c1.9-1.3,3.8-2.6,5.9-3.8c0.2-0.1,0.3-0.2,0.4-0.3c0.8-0.4,0.9-1.2,0.6-1.9c-0.4-0.8-1.1-0.7-1.8-0.4
			c-3.4,1.7-6.7,3.3-10.1,5c-7.9,4.1-15.8,8.3-23.5,12.7c-0.2,0.1-0.3,0.2-0.4,0.5c2.6-1.4,5.3-2.8,7.9-4.2
			c8.5-4.6,17-8.9,25.6-13.1c0.5-0.2,1.2-0.7,1.5,0c0.3,0.5,0,1.1-0.6,1.4c-4.2,1.9-7.7,4.7-11.4,7.4c-10.7,8-20.8,16.6-31,25.3
			c-3.9,3.4-7.9,6.7-11.9,10c-0.3,0.3-0.6,0.6-1.1,1c3,1.1,5.8,2.1,8.7,3.1c6.8,2.4,13.6,4.8,20.4,7.1c1.4,0.5,1.8,1.3,1.7,2.6
			c-0.1,1.4-0.4,2.7-1.3,3.8c-0.7,0.9-1.5,1.2-2.7,0.8c-10.5-3.6-21.1-7.2-31.6-11.1c-1.3-0.5-2.1-0.4-3,0.6
			c-1.8,1.8-1.8,1.7,0.4,2.8c6.2,2.9,12.4,5.8,18.6,8.7c0.7,0.3,1.5,0.4,2.3,0.4c8.3,0,16.6-0.1,24.8,0c7.2,0.1,14.4,0.3,21.5,1.2
			c1,0.1,2,0.3,3.1,0.5c0.2,0,0.6,0.1,0.6,0.4c0,0.4-0.3,0.5-0.6,0.5c-1.9,0.6-4,0.8-6,1c-9.9,1-19.8,1.5-29.7,1.9
			c-1.8,0.1-3.6,0.2-5.5,0.4c2.1,0.7,4.3,1.4,6.4,2.2c5.5,1.9,11.1,3.8,16.6,5.7c1.2,0.4,1.5,1,1.1,2.1c-0.4,1.1-1.1,1.2-2.1,0.9
			c-10.9-3.5-21.8-7-32.7-10.4c-0.6-0.2-1.1-0.4-1.7-0.2c0.3,0.4,0.9,0.4,1.3,0.6c15.8,5,31.5,10,47.3,14.9c1.4,0.4,2.4,1,2.1,2.6
			c-0.1,0.3,0,0.6,0.4,0.7c1.2,0.3,1.4,1.3,1.4,2.2c0.2,3.4-0.6,6.4-2.7,9.1c-1,1.2-1.5,1.2-2.9,0.6c-4.1-1.9-8.4-3.2-12.7-4.7
			c-13.3-4.5-27-8-40.4-12.4c-1.1-0.4-2.1-0.7-3.2-1c-0.1,0-0.2,0-0.3,0c0,0.1,0.1,0.2,0.1,0.3c0.5,1.8,1.5,3,3.5,3.6
			c8.2,2.7,16.3,5.7,24.4,8.7c-8.6-2.8-17.2-5.6-26.1-8.4c8,17,15.8,33.8,23.7,50.6l0,0c-0.6-0.1-0.6-0.7-0.8-1
			c-8.2-16.2-16.1-32.6-24-48.9c-0.6-1.2-1.4-1.5-2.7-1.7c1.1,2.3,2.1,4.3,3.1,6.4c6.7,13.9,13.4,27.9,20.1,41.8
			c0.4,0.8,0.3,1.1-0.5,1.5c-2.1,0.9-2.1,1-1.8,3.2c0.3,2-0.5,3.9-2,4.7c-1.4,0.8-3.4,0.4-4.9-0.9c-3.3-2.8-5.3-6.5-7.4-10.2
			c-2.3-4-4-8.3-5.7-12.6c-0.1-0.2-0.1-0.4-0.1-0.6l0,0c1.2,2.5,2.5,5,3.7,7.5c0.3,0.6,0.7,1.1,0.9,1.7c-0.8-1.9-1.8-3.7-2.5-5.6
			c-1.8-5-4.6-9.3-7.9-13.4c-1.5-1.9-2.9-3.9-4.5-6c-0.3,0.6,0.1,0.9,0.2,1.3c4.4,11,8.9,22,13.3,32.9c0.3,0.7,0.9,1.4,0.1,2.1
			c-0.9,0.9-2,1.3-3.3,1.2c-0.5,0-0.7-0.5-0.9-0.9c-4.5-8.8-9-17.7-13.5-26.5c-1.4-2.7-2.8-5.5-4.3-8.2c-0.2,2,0.1,4,0.3,6
			c0.6,5.8,1.7,11.6,1.8,17.5c0,4.4,0.1,8.8,0.1,13.2c0,1.6,0.2,3.2,0.4,4.8c0.1,0.7,0.1,1.5-0.3,2.1c-0.9,1.5-2.7,1.6-3.9,0.2
			c-0.8-0.8-0.9-1.9-1.2-3c-2.2-10.2-3.9-20.5-5.7-30.8c-1.8-10.8-3-21.7-4.2-32.6c-0.2-1.5-0.5-3-0.8-4.5c-0.2-0.8-0.5-1.1-1.3-0.4
			c-8.4,8.5-16.8,17-25.2,25.5c-7.9,7.9-15.8,15.8-23.6,23.8c-0.1,0.1-0.3,0.3-0.5,0.4c-0.3-0.4,0.1-0.6,0.3-0.8
			c8.5-8.9,17-17.7,25.6-26.5c5.2-5.4,10.4-10.8,15.6-16.2c0.1-0.1,0.2-0.2,0.2-0.2c0.1-0.1,0.2-0.2,0.3-0.3
			c0.1-0.1,0.3-0.2,0.1-0.4c0.2,0.2,0.3,0.1,0.4,0c0,0,0-0.1,0-0.2c-0.2,0-0.3,0.1-0.4,0.3c-0.1,0.1-0.2,0.2-0.3,0.2
			c-0.1,0.1-0.2,0.1-0.3,0.2c-0.1,0.1-0.2,0.1-0.3,0.2c-5.2,4.1-10.4,8.2-15.2,12.9c-10.8,10.6-21.8,21.1-32.7,31.7
			c-1.2,1.2-2.1,2.6-3.1,4c-2.1,2.9-4.1,5.7-6.2,8.6c-0.3,0.4-0.6,0.8-1,1.2c-1.2,1.2-3,1.3-4.1,0.2c-1-1-0.9-2.8,0.2-4
			c2.1-2.1,4.3-4.3,6.5-6.3c2.8-2.6,5.3-5.4,7.2-8.7c0.1-0.1,0.2-0.3,0.3-0.4c0-0.1,0.1-0.3,0.1-0.3c-0.1-0.1-0.2,0-0.3,0.1
			c-0.1,0.1-0.3,0.2-0.4,0.3c-4.6,3.6-9.2,7.3-13.8,10.9c-1.2,1-2.5,2-3.7,3c-1.1,0.9-2,0.8-2.6-0.5c-0.3-0.7-0.7-1-1.4-1.2
			c-2.1-0.8-2.4-2.8-0.7-4.2c0.5-0.4,1-0.9,1.6-1.3c1.1-0.8,2.2-1.5,1.4-3.3c-0.5-1.1,0.2-2.4,1.1-3.4c1.8-1.9,3.5-3.8,5.1-5.7
			c-1.2-0.5-2.3-1.6-3-3.2c-0.3-0.8-0.3-1.5,0.5-2c0.8-0.6,1.5-1.3,2.3-1.9c0.4-0.3,1-0.6,0.3-1.3c-0.3-0.4,0.2-0.6,0.4-0.8
			c2.1-2,4.2-4,6.3-5.9c0.4-0.3,0.8-0.6,0.2-1.1c-0.5-0.5,0.1-0.7,0.4-1c3.2-3.2,6.3-6.5,9.5-9.7c6.2-6.2,11.5-13.1,17.6-19.4
			c1.8-1.9,3.6-3.9,5.3-5.8c-1-1-1.8-0.5-2.6,0.2c-12.2,9.8-24.3,19.7-36.6,29.4c-1.9,1.5-3.6,3.1-4.6,5.3c-0.4,0.7-0.9,0.8-1.6,0.7
			c-0.6-0.2-1.2-0.5-1.7-0.9c-1.5-1.2-1.6-2.2,0-3.3c3.2-2.2,5.2-5.5,7.7-8.3c7.8-8.8,16.4-16.7,25-24.5c0.9-0.8,1.8-1.6,2.7-2.5
			c0.1-0.1,0.1-0.2,0.1-0.3c-3.9-1.3-7.7-2.6-11.5-4c-9.1-3.2-18.2-6.3-27.3-9.5c-2.2-0.8-4.6-1.1-6.7-2.1c-7-3.2-14.5-4.6-21.8-6.9
			c-0.4-0.1-0.8-0.3-1.3-0.2l0,0c-0.5-0.4-1-0.5-1.7-0.4c-2.2,0.4-4.4-1.3-4.3-3.2c0.2-1.9,1.3-2.6,3.1-2c9.9,3.4,19.7,7,29.7,9.9
			c0.2,0.1,0.5,0.2,0.7,0.2c0.3,0.1,0.5,0.2,0.8,0.2c0.2,0.1,0.5,0.3,0.6,0c0.1-0.2-0.2-0.2-0.4-0.3c-0.3-0.1-0.5-0.2-0.8-0.3
			c-0.2-0.1-0.5-0.2-0.7-0.3c-1.6-0.6-3.1-1.2-4.7-1.7c0,0,0-0.1,0-0.1c4.9,1.7,9.8,3.3,14.7,5c2.8,0.9,5.5,1.9,8.3,2.9
			c0.8,0.3,1.1,0.2,1.4-0.6c0.7-2.2,0.7-2.2-1.5-2.8c-13.2-3.9-26.4-7.9-39.6-11.8c-0.7-0.2-1.1-0.4-0.7-1.3
			c0.3-0.7,0.4-1.6,0.7-2.3c0.4-0.9,0-1.1-0.8-1.4c-3.8-1.4-7.8-2-11.9-2.4c-1.9-0.2-2.7-1.3-2.3-3.2c0.4-1.9,1.5-2.7,3.2-2
			c5.2,2,10.7,2.5,16.2,3.1c7.6,0.8,14.9,3.2,22.2,5.4c6.9,2.2,13.8,4.3,20.7,6.4c0.9,0.3,1.8,0.6,2.6,0.9c0,0,0-0.1,0-0.1
			C64.3,142.3,63.4,142,62.6,141.7z M208.9,110.5c-0.2,0.1-0.3,0.2-0.5,0.3c-0.2,0.1-0.5,0.2-0.4,0.4c0.2,0.3,0.4,0,0.6-0.2
			c0.2-0.1,0.3-0.2,0.5-0.3c0.1-0.1,0.3-0.1,0.2-0.3C209.2,110.3,209,110.5,208.9,110.5z M214.2,95.5c0.1-0.1,0-0.2-0.1-0.2
			c0,0-0.1,0-0.1,0C214.1,95.3,214.1,95.4,214.2,95.5c0.1,0.1,0.3,0.2,0.4,0.3c0-0.1,0.1-0.2,0.1-0.2
			C214.5,95.4,214.4,95.3,214.2,95.5z M215.3,96.5c0,0.1,0.1,0.1,0.1,0.2c0-0.1,0-0.1,0-0.2C215.4,96.5,215.3,96.5,215.3,96.5
			c0.1-0.1,0-0.3-0.1-0.4c0,0-0.1,0-0.2,0C215.1,96.2,215.2,96.3,215.3,96.5z M82.7,207.5c-0.1,0.1-0.2,0.1-0.1,0.3c0,0,0.1,0,0.1,0
			C82.8,207.7,82.8,207.6,82.7,207.5c0.3,0.2,0.4,0,0.5-0.2c0.5-0.2,0.8-0.5,1.2-0.9c3.1-2.4,6.2-4.8,9.2-7.3
			c0.1-0.1,0.3-0.2,0.2-0.4c0.4,0.2,0.5-0.2,1.1-0.5c-0.7,0.1-0.9,0.3-1.1,0.5c-3.6,2-6.7,4.6-9.6,7.5c-0.4,0.3-1,0.4-1,1.1
			C82.9,207.1,82.8,207.4,82.7,207.5z M52.5,231.9c-0.2,0-0.3,0-0.5,0c0,0,0,0.1,0,0.1C52.2,232,52.3,232,52.5,231.9
			c0.1-0.1,0.1-0.2,0.2-0.3c0.3-0.4,1-0.4,1-1.1c0.6,0.2,0.9-0.4,1.3-0.7c6.2-4.6,11.9-9.9,17.8-14.8c0.9-0.8,1.7-1.6,2.3-2.7
			c0.1-0.2,0.4-0.3,0.3-0.6c-0.1,0.1-0.3,0.3-0.4,0.4c-2.4,2-4.8,4.1-7.1,6.1c-4.7,4.1-9.4,8.2-14.1,12.3c-0.4,0.3-1,0.4-1,1.1
			C52.5,231.6,52.4,231.7,52.5,231.9z M78.6,188.4c0.2-0.2,0.4-0.3,0.5-0.5c0.2,0,0.3-0.1,0.3-0.3c0.1-0.1,0.3-0.1,0.4-0.2
			c3.5-3.1,7-6.2,10.4-9.4c1.6-1.5,3-3.1,4.5-4.8c-0.9-0.3-1.6-0.3-2.2,0.4c-4.2,4.4-8.5,8.8-12.7,13.2c-0.2,0.2-0.6,0.4-0.5,0.8
			c-0.2-0.1-0.3,0-0.3,0.3C78.7,187.8,78.5,188,78.6,188.4c0,0-0.1,0-0.2,0c0,0.1,0,0.1,0,0.2C78.5,188.5,78.5,188.4,78.6,188.4z
			 M140.2,133.2c-0.4,0.3-0.7,0.7-1.1,1C139.4,133.9,140.2,133.8,140.2,133.2c0,0,0.1,0,0.2,0c0-0.1,0-0.1,0-0.2
			C140.3,133.1,140.2,133.2,140.2,133.2z M65.4,126.5c0.1,0.1,0.2,0.1,0.3,0.2c0-0.1,0-0.1,0-0.2C65.6,126.5,65.5,126.5,65.4,126.5
			c-0.4-1-1.3-0.9-2.2-0.8C63.9,125.9,64.6,126.2,65.4,126.5z M74.5,220.3c-1.3,0.2-1.9,1.2-2.8,2.5C72.8,221.8,73.6,221,74.5,220.3
			c0.1-0.2,0.2-0.4,0.3-0.6C74.7,219.9,74.4,219.9,74.5,220.3z M167.4,243.7c0,0.1,0,0.2,0,0.3c0,0,0,0,0-0.1
			C167.5,243.9,167.4,243.8,167.4,243.7c-1.6-2.2-3.2-4.4-4.8-6.6c1,2.5,2.6,4.6,4.4,6.6C167.1,243.8,167.3,243.8,167.4,243.7z
			 M105.5,186.8c3.3-2.1,6.3-4.5,9.5-6.8c-0.8-0.6-1.3-0.5-2,0.1c-2.3,2-4.6,3.9-6.9,5.9C105.9,186.2,105.4,186.3,105.5,186.8
			c-0.4-0.1-0.5,0.2-0.9,0.5C105.1,187.2,105.3,187.1,105.5,186.8z M81.2,54.8c-1-1.5-1.3-3.3-2.3-4.8c0.4,2,1.1,3.9,2.2,5.6
			c1.1,3.3,2.6,6.4,4,9.7c0.1,0.4,0.1,1,0.9,0.7c0.8-0.4,0.3-0.8,0.1-1.2c-1.5-3.6-3.1-7.2-4.6-10.8c-0.1-0.3-0.1-0.7-0.7-0.8
			C80.9,53.8,81.2,54.3,81.2,54.8z M90.7,53.8c-0.5-1-1-2.1-1.5-3.1C89.6,51.8,89.9,52.9,90.7,53.8c0,0.5,0.2,0.9,0.4,1.4
			c2.8,6.2,5.6,12.5,8.5,18.7c1.1,2.4,2.3,4.8,3.5,7.5c0-0.9,0-1.4-0.3-1.8C98.8,71,94.8,62.4,90.7,53.8z M65.1,184.7
			c0.3-0.2,0.6-0.4,0.8-0.6c4.4-3.5,8.7-7,13-10.6c1.6-1.3,3.3-2.7,5.1-4.1c-1.4-0.4-2.4-1.3-3.8,0.1c-4.8,4.9-9.8,9.6-14.8,14.4
			C65.3,184.2,64.9,184.3,65.1,184.7c-0.7-0.1-0.7,0.6-1,0.9C64.4,185.4,64.8,185,65.1,184.7z M211.1,99.1c-0.5-0.2-1,0-1.5,0.2
			c-3.4,0.9-6.8,1.9-10.1,3.2c-3.3,1.3-7,2.1-9.2,5.3c-0.7,1-1.8,1.7-3,2.7c0.4-0.2,0.5-0.2,0.7-0.3c5.1-2.8,10.5-5.2,15.9-7.4
			C206.4,101.8,208.9,100.6,211.1,99.1L211.1,99.1L211.1,99.1z M193.9,92c-2.5,1.5-4.6,3.4-6.8,5.3c-17.8,15.3-34.9,31.5-52.8,46.6
			c-0.2,0.2-0.5,0.3-0.3,0.6c0.7,0.4,1.1-0.3,1.5-0.7c10-8.2,19.6-16.7,29.4-25.1c8.1-6.9,16.2-13.8,24.3-20.8c2-1.7,3.7-3.6,5-5.9
			c0.1-0.1,0.1-0.2,0.2-0.3C194.1,91.7,194,91.9,193.9,92z M196.1,114.6c-0.2,0.1-0.4,0.1-0.6,0.2c-7.8,4.1-15.6,8.1-23.2,12.4
			c-3.3,1.9-6.8,3.6-9.9,5.8c-6.2,4.5-11.8,9.8-17.6,14.9c-0.1,0.1-0.1,0.2-0.2,0.4c2.3,0.8,4.5,1.5,6.7,2.4c1,0.4,1.6,0.2,2.4-0.5
			c13.7-11.9,27.4-23.9,41.8-34.9C195.8,115.1,196.2,115,196.1,114.6c0.1,0.1,0.3,0,0.4,0c0,0,0-0.1,0-0.1
			C196.3,114.5,196.2,114.5,196.1,114.6z M114.1,98.3c0.1,0,0.2,0,0.2,0c0.4-2.9,0.7-5.8,1.1-8.7c0.2-1.9,0.8-3.7,0.4-5.6
			c-1-6.5-2-13-3.4-19.5c-1-4.9-2.2-9.9-4-14.6c-0.8-2.1-2.2-3.2-3.5-2.9c-1.5,0.3-2.3,1.8-2.1,4.2c0.3,3.9,0.9,7.7,1.1,11.6
			c0.4,5.7,1.1,11.4,1.7,17.1c0.2,2,0.1,4.1,1.6,5.6c-0.4-3.8-0.8-7.7-1.1-11.6c0.5,2.1,0.9,4.2,1.1,6.4c0.2,2.3,0.6,4.6,1,6.9
			c0.2,1.4,1.2,2.7,2.1,4.4c-0.1-0.6-0.4-0.9,0.1-1.1C111.6,93.1,112.8,95.7,114.1,98.3z M184,83.4c0,0-0.1-0.1-0.1-0.1
			c-0.4,0.3-0.8,0.6-1.2,0.9c-10.4,8.4-19.8,17.8-29.3,27.2c-7,6.9-13.4,14.2-20.1,21.4c-0.6,0.6-1.2,1.3-1.8,1.9
			c-0.4,0.4-0.3,0.8,0,1.1c0.4,0.4,0.6-0.2,0.8-0.3c1-0.9,2-1.9,3-2.9c14-14.1,28.1-28.3,42.1-42.4C179.7,87.9,181.9,85.7,184,83.4z
			 M59,131.5c1.1,0.6,2,1,2.9,1.5c2.5,1.2,4.8,2.7,7.4,3.8c1.2,0.5,2.5,0.3,3.6,0.9c5.7,3.1,11.8,5.4,17.7,8.2
			c0.4,0.2,0.8,0.6,1.3,0.2c1.1-0.7,2.2-1.4,3.3-2.1C83.9,137.8,72,133.3,59,131.5z M133.2,186.1c-0.2,1.9,0.8,5.3,2.2,7.2
			c3.7,5,7.3,10.1,11,15.1c0.2,0.2,0.3,0.6,0.7,0.7c-0.7-2.7-1.4-5.3-2.1-7.9c-0.3-1.2-0.8-2.2-1.5-3.2c-2.2-3.1-4.4-6.2-6.4-9.4
			C136.2,187.1,134.9,186.4,133.2,186.1z M152.5,183.5C152.5,183.5,152.5,183.5,152.5,183.5c7.4,2.2,14.8,4.3,22.2,6.4
			c12.2,3.4,24.5,6.7,36.8,10.1c1.3,0.4,1.6,0.1,1.6-1.1c0-0.3,0.2-0.7-0.2-0.8c-0.4-0.1-0.8,0.1-0.9,0.5c-0.1,0.9-0.5,0.7-1,0.5
			c-1.1-0.4-2.3-0.8-3.4-1.1c-10.1-2.7-20.2-5.3-30.2-8C169.1,187.8,160.8,185.6,152.5,183.5z M149.3,179.7c0.2,1.1,0.7,1.7,1.8,2
			c8.8,2.4,17.6,4.9,26.4,7.4c4.7,1.3,9.4,2.6,14.1,3.9C177.4,188.7,163.6,183.6,149.3,179.7z M95.9,116.8
			c-4.3-10.2-9.5-20-14.4-29.9C85.5,97.2,89.5,107.5,95.9,116.8z M69.6,140.7c-2.9-1.5-5.9-2.9-8.9-4.1c-4.1-1.8-8.5-3.1-12.1-6
			c-0.8-0.7-1.7-1-2.7-0.9c-1.3,0.1-2.5-0.3-3.7-0.9c-1.1-0.5-3.3-0.9-4.4-0.7c7.8,2.7,14.7,6.7,22.4,8.9
			C63.4,137.9,66.5,139.4,69.6,140.7z M205,172.5c-11.3-0.3-22.5,0.1-33.8,0.4c-0.1,1.1,0.6,1,1.3,1c7.3-0.3,14.6-0.5,21.8-0.7
			C197.8,173,201.4,172.9,205,172.5z M96.4,131.4c-0.1-0.2-0.2-0.5-0.3-0.7c-4.4-9.3-8.4-18.7-12.3-28.2c-2-4.8-4.1-9.6-6.9-14.1
			C83.1,102.9,89.5,117.3,96.4,131.4z M131.3,126.8c4.6-4.8,9-9.6,13.6-14.5c-0.9,0.1-1.2,0.5-1.5,0.8c-3.6,3.1-7.1,6.4-10.8,9.4
			C131.3,123.7,130.8,124.9,131.3,126.8z M138.2,153.8c-0.4,0.2-1,0.4-0.8,0.9c0.3,1,0.7,2.1,1.4,2.7c1.2,0.9,2.6,1.6,4,1.9
			c0.9,0.2,1.5-1.1,2.3-1.7c0.1,0,0.1-0.1,0.2-0.2c0.7-0.5,0.7-0.8-0.2-1.1c-1.8-0.6-3.5-1.3-5.3-1.9
			C139.3,154.2,138.8,154,138.2,153.8z M133.7,198.5c-0.1,1.6-0.6,3.2,0.1,4.6c2.8,5.7,5.7,11.2,8.6,16.9c0,0,0.1,0,0.1-0.1
			C139.5,212.7,136.6,205.6,133.7,198.5z M158.2,223c-2.6-4.5-5.2-9-7.8-13.4C151.2,215,154.5,219.2,158.2,223z M63.7,129.4
			c-2.7-1.2-5-2.9-8.2-2.8c-2.7,0.1-5.5-0.4-8.2-0.6c0,0.1,0,0.1,0,0.2C52.7,127.3,58.2,128.4,63.7,129.4z M130,205.8
			c0.2-1.5,0-2.6-0.6-3.8c-1.3-2.4-2.5-4.8-3.7-7.2C126.2,198.8,128,202.2,130,205.8z M71.2,156.5c0,0.1,0,0.1-0.1,0.2
			c4.4,1.5,8.7,3,13.1,4.6c0.7,0.3,1.1,0,1.5-0.6C80.9,159.3,76,157.9,71.2,156.5z M182.1,118.3c5.8-3.1,11.7-6.1,17.5-9.2
			c-3.1,1.2-6.1,2.6-9,4.1C187.7,114.7,184.8,116.3,182.1,118.3z M113.6,103.6c-0.8-3.9-3-7.2-4.7-10.8
			C109.7,96.7,111.9,100,113.6,103.6z M120.2,123.6c-0.1-3.2-2.1-5.7-3.4-8.4C117.4,118.2,119,120.8,120.2,123.6z M117.5,110.3
			c-0.5,2.7,1.6,4.6,2.3,6.8C120.2,114.4,118.4,112.5,117.5,110.3z M94.9,147.7c1.3,0.4,2.3,0.8,3.3,1.1c0.4,0.2,0.7,0,1-0.3
			c0.3-0.3,0.1-0.5,0-0.8c-0.7-1.8-0.7-1.8-2.4-1C96.4,147.1,95.8,147.3,94.9,147.7z M153.2,191.5c-1.3-3.3-1.1-3.2-3.4-3.5
			C150.6,189.5,150.8,191.5,153.2,191.5z M119.5,109.6c-0.4-2.5-0.8-4.8-1.1-7.2C117.7,105,117.7,107.3,119.5,109.6z M129.6,195
			c0.4-3.1-1.9-4.3-3.1-6.1C127.5,190.8,128.5,192.8,129.6,195z M92.5,162.6c-1.2-0.3-2.1-0.6-3.1-0.9c-0.5-0.1-0.8,0.1-1.1,0.5
			c-0.1,0.1-0.3,0.3-0.1,0.4c0.9,0.4,1.7,0.7,2.6,1C91.6,163.8,91.9,163.1,92.5,162.6z M163.4,159.5
			C163.4,159.5,163.4,159.5,163.4,159.5c-4.3-1.6-8.6-3.1-12.8-4.7c0,0.1,0,0.1-0.1,0.2C154.8,156.6,159.1,158.1,163.4,159.5z
			 M91.1,155.5c0-0.1,0.1-0.1,0.1-0.2c-4.2-1.3-8.4-2.6-12.6-3.9c0,0,0,0.1,0,0.1C82.8,152.8,87,154.2,91.1,155.5z M115.2,100.6
			c0.2-2.3,1.1-4.5,0.3-6.8C115.5,96.1,114.3,98.3,115.2,100.6z M148.7,154.4c0-0.1,0.1-0.2,0.1-0.2c-2.7-1-5.3-1.9-8-2.9
			c0,0.1-0.1,0.3-0.1,0.4C143.3,152.6,146,153.5,148.7,154.4z M45.1,116.6c-2.6-1-5.3-1.9-7.9-2.9C39.5,115.5,42.4,115.7,45.1,116.6
			z M145.1,178.5c0.3,1.8,1.5,2.1,3,2.3C147.8,179,146.5,178.7,145.1,178.5z M96.2,107.1c1,2.5,1.8,5.1,3.3,7.8
			C98.5,112,97.5,109.5,96.2,107.1z M110.6,101.2c-0.1,0-0.1,0.1-0.2,0.1c0.9,2,1.8,4.1,2.7,6.1c0.1-0.1,0.2-0.1,0.4-0.2
			C112.4,105.2,111.5,103.2,110.6,101.2z M123.1,122.1c0.3,1.5-0.1,2.9,1.1,4.1C124.6,124.7,124.1,123.5,123.1,122.1z M115.1,178.4
			c1.6,1.1,2-0.3,2.7-1C116.5,176.5,116,177.9,115.1,178.4z M106.9,88c-0.3,1.7,0.5,2.7,1.1,4C108.3,90.4,107.4,89.4,106.9,88z
			 M133,182.7c0,2.2,0,2.2,1.6,2.3C134.1,184.3,133.7,183.6,133,182.7z M85.9,168c-0.9-0.4-1.8-0.9-2.9-0.7
			C83.9,167.7,84.7,168.4,85.9,168z M51.5,123.8c-1.5-0.7-2.9-1.7-4.9-2.1C48.5,122.5,50,123.1,51.5,123.8z M142.7,165.4
			c0.4,1.3,1.6,1.2,2.6,1.2C144.4,166.2,143.5,165.8,142.7,165.4z M114.3,103.6c-0.2,0.9-0.4,1.7,0.4,2.4
			C114.9,105.2,114.9,104.4,114.3,103.6z M89.8,169.8c0.6,0.2,1.1,0.6,1.6,0c0.2-0.2,0.2-0.4-0.1-0.5
			C90.7,169.1,90.1,169,89.8,169.8z M102.1,165.8c0.1-0.3-0.1-0.4-0.3-0.4c-0.8,0-1.1,0.7-1.5,1.2c-0.1,0.2,0.1,0.3,0.3,0.3
			C101.4,166.9,101.7,166.1,102.1,165.8z M76.7,165.3c0.8,0.3,1.8,0.7,2.8,1c0-0.1,0.1-0.2,0.1-0.3
			C78.5,165.7,77.5,165.5,76.7,165.3z M95.3,171.6c0.7,0.5,1,0,1.4-0.3c0.2-0.2-0.1-0.3-0.2-0.4C95.8,170.6,95.7,171.3,95.3,171.6z
			 M179.2,164.3C179.2,164.4,179.2,164.4,179.2,164.3c1,0.5,2.1,0.8,3.1,1.2c0-0.1,0-0.1,0.1-0.2C181.3,165,180.3,164.7,179.2,164.3
			z M140.9,165.6c-0.4-0.6-0.3-1.2-0.8-1.2c-0.3,0-0.5,0.3-0.6,0.7C139.9,165.2,140.2,165.4,140.9,165.6z M145.4,111.9
			c-0.2,0-0.3-0.1-0.4-0.1c-0.1,0-0.2,0.2-0.2,0.3c0,0.1,0.1,0.2,0.2,0.2C145.1,112.1,145.2,112,145.4,111.9z M213.4,95.1
			c0.1,0,0.1-0.1,0.2-0.1c0,0-0.1-0.1-0.1-0.1c-0.1,0-0.2,0-0.2,0C213.3,95,213.4,95.1,213.4,95.1z M184.6,82.7l0,0.1l-0.1,0
			L184.6,82.7z M213.6,102.4C213.6,102.4,213.7,102.4,213.6,102.4c0.1-0.1,0-0.1,0-0.2C213.6,102.3,213.5,102.3,213.6,102.4
			C213.5,102.4,213.6,102.4,213.6,102.4z M214.1,102.1C214.2,102.1,214.2,102,214.1,102.1c0-0.1,0-0.1-0.1-0.2c0,0-0.1,0-0.1,0.1
			C214,102,214.1,102.1,214.1,102.1z"/>
		<path fill="#222222" d="M278,67.4c7.1,0,13.8,2.1,19.6,6.9c2.3,1.8,2.3,1.9,0.5,4.2c-1.6,2.1-3.1,4.1-4.7,6.2
			c-0.4,0.6-0.6,0.8-1.3,0.1c-3.5-3.5-7.6-6-12.7-6.6c-2.7-0.3-5.3-0.2-7.8,1.2c-2.5,1.3-3.9,3.3-3.8,6.2c0,2.7,1.6,4.4,3.9,5.4
			c3.4,1.6,7.1,2.3,10.7,3.4c3,0.9,6,1.8,8.8,3.2c9.7,4.9,12.7,16.3,6.4,25.3c-3.9,5.6-9.5,8.6-16.1,9.4c-9.8,1.1-18.7-1.4-26.2-8.1
			c-1-0.9-2.5-1.9-2.7-3.1c-0.2-1.3,1.4-2.1,2.3-3.2c1.3-1.6,2.8-3.2,4.1-4.8c0.6-0.7,0.9-0.6,1.4,0c3.6,4.1,7.8,7.2,13.2,8.3
			c3.4,0.7,6.9,0.8,10.2-0.6c3.7-1.5,5.3-4.5,4.7-8.4c-0.4-2.6-2.3-4.1-4.5-5c-3-1.3-6.1-2-9.2-2.9c-3-0.9-6-1.8-8.9-3
			c-13.5-5.5-12.6-21-4.5-28.2C265.6,69.4,271.8,67.1,278,67.4z"/>
		<path fill="#222222" d="M319.3,95.6c4.8-6.3,12.4-8.3,19.9-5.2c7.3,3,11.2,8.7,12.5,16.2c1.1,6.7,0,13-4.2,18.5
			c-5.4,7.1-15.2,9.6-22.7,5.8c-2.1-1.1-3.9-2.6-5.2-4.6c-0.4,0.4-0.2,0.8-0.2,1.2c0,6.4,0,12.9,0,19.3c0,1-0.3,1.2-1.2,1.2
			c-3.1-0.1-6.3-0.1-9.4,0c-0.8,0-1.1-0.2-1.1-1.1c0-18.6,0-37.2,0-55.8c0-0.9,0.2-1.2,1.1-1.2c3.2,0.1,6.4,0,9.6,0c0.8,0,1,0.2,1,1
			C319.2,92.4,319.3,93.8,319.3,95.6z M340.4,110.8c0-1-0.1-2-0.3-2.9c-1.7-7.7-10.6-11.1-16.7-6.4c-3.9,3.1-5.1,7.2-4.1,12
			c0.9,4.1,3.3,7.1,7.5,8.3C333.8,123.8,340.4,118.4,340.4,110.8z"/>
		<path fill="#222222" d="M254,163.3c4,0,8,0,12.1,0c0.8,0,0.8,0.6,1,1.1c4,10.4,7.9,20.7,11.9,31.1c2.2,5.7,4.3,11.4,6.6,17.3
			c1.4-3.6,2.7-7.1,4-10.5c4.8-12.7,9.6-25.3,14.4-38c0.3-0.8,0.6-1.1,1.6-1.1c3.4,0.1,6.8,0.1,10.2,0c1.2,0,1.1,0.4,0.7,1.2
			c-6.3,15.6-12.5,31.3-18.8,47c-1.9,4.6-3.7,9.3-5.5,13.9c-0.3,0.8-0.6,1.1-1.6,1.1c-3.5-0.1-7.1,0-10.6,0c-0.7,0-1.1-0.1-1.3-0.8
			c-8.2-20.5-16.4-41-24.6-61.5C254,163.9,253.8,163.7,254,163.3z"/>
		<path fill="#222222" d="M446.7,108.2c5.2-5.9,10.2-11.5,15.1-17.1c0.7-0.8,1.3-1,2.3-1c4,0.1,7.9,0,12.2,0c-0.4,0.5-0.7,0.8-1,1.2
			c-5.2,5.7-10.3,11.4-15.5,17c-0.6,0.6-0.7,1-0.1,1.8c5.5,6.9,10.9,13.8,16.4,20.7c0.2,0.2,0.3,0.5,0.5,0.7c-0.3,0.4-0.7,0.2-1,0.2
			c-3.9,0-7.9,0-11.8,0c-0.8,0-1.2-0.2-1.7-0.9c-4.8-6.3-9.6-12.6-14.4-18.9c-0.3-0.3-0.5-0.7-1-1.2c0,0.7,0,1.1,0,1.5
			c0,6.1,0,12.2,0,18.2c0,1.1-0.3,1.3-1.3,1.3c-3.1-0.1-6.2-0.1-9.3,0c-0.8,0-1.1-0.2-1.1-1.1c0-20.3,0-40.6,0-61
			c0-1,0.3-1.1,1.2-1.1c3.1,0,6.2,0.1,9.3,0c1,0,1.2,0.2,1.2,1.2c0,12.3,0,24.5,0,36.8C446.7,106.9,446.7,107.4,446.7,108.2z"/>
		<path fill="#222222" d="M339.2,209c-4.7,0-9.3,0-14,0c-1.5,0-1.5,0-1,1.5c1.8,4.6,6.5,7.3,11.9,6.9c3.2-0.3,6.2-1.2,8.6-3.5
			c0.4-0.4,0.7-0.4,1.2,0c2,1.9,4,3.8,6.1,5.6c0.4,0.4,0.6,0.6,0.1,1.1c-6.5,6.1-14.2,8.3-22.8,6.2c-8.3-2-13.9-7.2-16.3-15.5
			c-3.5-12.2,5.2-25.4,17.8-27.1c5.5-0.8,10.8,0,15.4,3.3c5.1,3.6,7.5,8.7,8.3,14.7c0.2,1.9,0.2,3.8,0.3,5.7c0,0.9-0.3,1.1-1.2,1.1
			C348.8,209,344,209,339.2,209z M342.8,201.3c-0.5-4.2-3.9-7.2-8.3-7.3c-4.8-0.2-9.3,3.1-10.1,7.3
			C330.5,201.3,336.6,201.3,342.8,201.3z"/>
		<path fill="#222222" d="M543.3,209c-4.7,0-9.4,0-14.1,0c-1,0-1.3,0.2-0.9,1.2c1.8,4.9,7,7.8,12.8,7.1c3-0.4,5.7-1.4,7.9-3.5
			c0.4-0.4,0.7-0.3,1.1,0.1c2,1.9,4.1,3.8,6.2,5.7c0.4,0.3,0.5,0.6,0.1,1c-11.1,11-30.3,8.8-37.6-5.2c-6.7-13,1.8-29.1,16.3-31.1
			c6.9-0.9,13.1,0.5,18,5.6c4,4.2,5.7,9.4,5.8,15.1c0,1-0.1,2,0,3c0.1,0.9-0.2,1.2-1.1,1.2C552.9,209,548.1,209,543.3,209z
			 M528.3,201.3c5.4,0,10.6,0,15.8,0c0.9,0,2.3,0.5,2.6-0.2c0.4-1-0.4-2.1-1-3.1c-0.2-0.3-0.3-0.5-0.5-0.7c-2.3-2.9-5.4-3.7-8.9-3.1
			C532.4,194.9,529.8,197.3,528.3,201.3z"/>
		<path fill="#222222" d="M383.3,126.5c-5.6,7.4-15.3,7.2-21.1,3.9c-6.6-3.8-8.5-14.7-0.7-20c3.7-2.5,7.8-3.5,12.2-3.9
			c2.8-0.2,5.6-0.5,8.4-0.6c0.9-0.1,1-0.5,0.9-1.2c-0.4-2.9-2.8-5-6.4-5.4c-4.8-0.6-9.1,0.9-13.1,3.4c-1,0.6-1.3,0.5-1.8-0.6
			c-0.9-2.2-2-4.4-3-6.6c-0.2-0.4-0.5-0.8,0.1-1.2c8-4.8,16.5-7.1,25.6-3.9c6.3,2.2,9.9,7.9,10,15.2c0.1,8.3,0,16.6,0,24.8
			c0,0.9-0.2,1.2-1.1,1.2c-3-0.1-6,0-9.1,0c-0.8,0-1.1-0.2-1-1C383.3,129.3,383.3,128,383.3,126.5z M373.6,123.9
			c5.6,0,9.3-3.5,9.5-9c0-0.9,0-1.3-1.1-1.2c-2.3,0.3-4.7,0.4-7.1,0.6c-1.8,0.2-3.7,0.5-5.3,1.4c-2.9,1.6-3,5.4-0.1,7.2
			C370.7,123.7,372.1,124,373.6,123.9z"/>
		<path fill="#222222" d="M373.2,190.8c3.4-5.5,8.3-7.5,14.2-6.8c6.5,0.8,10.8,4.7,12.5,10.9c0.5,2,0.8,4.1,0.8,6.3c0,8,0,16,0,23.9
			c0,1-0.2,1.3-1.3,1.3c-3.1-0.1-6.2-0.1-9.3,0c-0.9,0-1.1-0.3-1.1-1.2c0-7.4,0-14.8,0-22.3c0-1-0.1-2-0.4-2.9c-1-3.8-3.8-6-7.6-5.9
			c-3.9,0.1-6.9,2.7-7.6,6.7c-0.2,0.9-0.3,1.9-0.3,2.8c0,7.2,0,14.3,0,21.5c0,1.1-0.3,1.3-1.4,1.3c-3.1-0.1-6.2-0.1-9.3,0
			c-0.8,0-1-0.2-1-1c0-13.2,0-26.4,0-39.6c0-0.7,0.2-0.9,0.9-0.9c3.3,0,6.6,0,9.8,0c0.8,0,0.9,0.3,0.9,1
			C373.1,187.5,373.2,189,373.2,190.8z"/>
		<path fill="#222222" d="M468.2,220.6c-3.3,5.2-7.8,7.3-13.5,6.8c-5.6-0.5-9.6-3.5-11.8-8.7c-1.2-2.7-1.6-5.6-1.6-8.6
			c0-8,0-16,0-23.9c0-1,0.2-1.2,1.2-1.2c3.1,0.1,6.3,0.1,9.4,0c0.9,0,1.1,0.3,1.1,1.1c0,7.5,0,14.9,0,22.4c0,1.2,0.1,2.4,0.5,3.6
			c0.9,3.2,3.1,5.1,6,5.4c3.5,0.3,6.3-1.3,7.7-4.3c0.7-1.5,1-3.1,1-4.8c0-7.3,0-14.7,0-22c0-1.2,0.3-1.4,1.4-1.4
			c3.1,0.1,6.1,0.1,9.2,0c0.8,0,1.1,0.1,1.1,1c0,13.2,0,26.3,0,39.5c0,0.7-0.1,1.1-1,1c-3.2-0.1-6.5,0-9.7,0c-0.8,0-1-0.2-1-1
			C468.2,224,468.2,222.4,468.2,220.6z"/>
		<path fill="#222222" d="M569.2,212.4c2.7,2.3,5.5,4.1,8.9,5c2.4,0.7,4.7,0.9,7.2,0.5c0.7-0.1,1.3-0.3,2-0.6
			c1.1-0.6,1.7-1.5,1.6-2.8c-0.1-1.2-0.8-1.9-1.9-2.2c-2.8-1-5.6-1.6-8.5-2.3c-1.8-0.5-3.7-1-5.4-1.8c-4.2-1.9-7.1-4.8-7.4-9.7
			c-0.3-5.2,1.8-9.2,6.2-11.8c6.6-3.8,13.5-3.3,20.3-0.7c2.3,0.9,4.3,2.3,6.3,3.7c0.5,0.4,0.5,0.6,0.2,1.1c-1.7,2.2-3.5,4.4-5.1,6.7
			c-0.5,0.7-0.8,0.5-1.3,0.1c-3.1-2.4-6.6-4.1-10.7-3.9c-1.2,0-2.3,0.3-3.3,0.9c-1.8,1.2-1.8,3.3,0,4.5c0.8,0.6,1.8,0.8,2.8,1.1
			c3,0.8,6.1,1.5,9.1,2.4c2,0.6,4,1.5,5.7,2.8c4.5,3.5,5.5,10.1,2.3,15.3c-2.4,3.8-6.1,5.8-10.4,6.6c-8.6,1.5-16.5-0.2-23.5-5.7
			c-0.8-0.6-0.7-1-0.2-1.7C565.8,217.2,567.5,214.8,569.2,212.4z"/>
		<path fill="#222222" d="M435.3,216.3c0,3.2,0,6.3,0,9.4c0,0.5-0.2,0.8-0.7,0.9c-5.1,1.2-10.2,1.6-15-1c-4.9-2.6-6.6-7.1-6.7-12.4
			c-0.1-5.9,0-11.8,0-17.7c0-1-0.2-1.3-1.2-1.2c-1.5,0.1-3,0-4.5,0c-0.7,0-0.9-0.2-0.9-0.9c0-2.5,0-5.1,0-7.6c0-0.7,0.3-0.9,0.9-0.8
			c1.5,0,2.9,0,4.4,0c1,0.1,1.3-0.2,1.3-1.2c-0.1-3.1,0-6.2,0-9.3c0-0.8,0.2-1.1,1.1-1.1c3.2,0.1,6.4,0,9.6,0c0.9,0,1.1,0.2,1.1,1.1
			c0,3.2,0,6.4,0,9.6c0,0.8,0.2,1,1,1c2.6-0.1,5.2,0,7.8,0c0.8,0,1.1,0.1,1.1,1c-0.1,2.5-0.1,4.9,0,7.4c0,0.7-0.2,1-0.9,0.9
			c-2.6,0-5.2,0-7.8,0c-0.9,0-1.2,0.1-1.2,1.1c0.1,5.6,0,11.1,0,16.7c0,3,1.8,4.8,4.7,5.1C431.4,217.3,433.3,217.1,435.3,216.3z"/>
		<path fill="#222222" d="M414.7,96.5c2.1-3.3,4.6-5.8,8.3-6.8c1.5-0.4,3.1-0.3,4.6-0.2c0.6,0,0.7,0.3,0.7,0.9c0,3.7,0,7.4,0,11.2
			c-1.6-0.3-3.1-0.7-4.7-0.7c-4.7,0.1-8.2,3.2-8.7,7.9c-0.3,2.8-0.1,5.7-0.2,8.5c0,4.4,0,8.8,0,13.2c0,0.9-0.2,1.2-1.1,1.2
			c-3.1-0.1-6.3-0.1-9.4,0c-0.9,0-1.1-0.3-1.1-1.1c0-13.2,0-26.3,0-39.5c0-0.8,0.2-1,1-1c3.2,0,6.5,0,9.7,0c0.7,0,1,0.2,0.9,0.9
			C414.6,92.8,414.7,94.6,414.7,96.5z"/>
		<path fill="#222222" d="M499.5,191.7c1.7-3.3,4.1-5.7,7.7-6.9c1.6-0.5,3.3-0.6,5-0.4c0.6,0.1,0.9,0.3,0.9,0.9c0,3.4,0,6.8,0,10.2
			c0,0.8-0.2,1-1,0.7c-1.8-0.6-3.7-0.7-5.6-0.3c-4.3,0.9-6.9,4.4-7,9.2c0,6.7,0,13.4,0,20.1c0,1-0.3,1.3-1.3,1.3
			c-3.1-0.1-6.2,0-9.3,0c-0.8,0-1.1-0.1-1.1-1c0-13.2,0-26.3,0-39.5c0-0.8,0.1-1,1-1c3.3,0.1,6.6,0,9.8,0c0.7,0,0.9,0.2,0.9,0.9
			C499.5,187.8,499.5,189.7,499.5,191.7z"/>
		<path fill="#222222" d="M212.4,105c0.9,1,1,2.9,0.1,3.8c-0.1,0.1-0.2,0.1-0.3,0.1c-0.1,0.1,0,0.2,0,0.1c0.1-0.1,0.2-0.3-0.1-0.4
			c0,0,0,0,0,0c0.4,0,0.5-0.2,0.3-0.5c0,0,0,0,0,0C213.6,107.1,212.7,106,212.4,105L212.4,105z"/>
		<path fill="#222222" d="M66.7,237.3c0.2-1,1.1-1.3,1.6-2c0.1,0.1,0.1,0.1,0.2,0.2C68,236.2,67.4,236.8,66.7,237.3L66.7,237.3z"/>
		<path fill="#222222" d="M27.1,145.4c0.6,0.2,1.2,0.4,1.9,0.6c0,0,0,0.1,0,0.1C28.3,145.9,27.7,145.6,27.1,145.4L27.1,145.4z"/>
		<path fill="#222222" d="M27.1,145.4c-0.1,0-0.3-0.1-0.4-0.1C26.8,145.3,27,145.3,27.1,145.4C27.1,145.4,27.1,145.4,27.1,145.4z"/>
		<path fill="#222222" d="M152.6,225.6c-0.2,0-0.2-0.1-0.2-0.2c0,0,0.1-0.1,0.1-0.1C152.6,225.4,152.6,225.5,152.6,225.6
			C152.6,225.7,152.6,225.6,152.6,225.6z"/>
		<path fill="#222222" d="M68.3,235.3c0.1-0.2,0.2-0.5,0.5-0.2c0.1,0.1-0.1,0.3-0.3,0.4C68.4,235.4,68.4,235.4,68.3,235.3z"/>
		<path fill="#222222" d="M64.3,239.6c-0.1,0.1-0.2,0.1-0.3,0.2c0-0.1,0-0.1-0.1-0.2C64.1,239.7,64.2,239.7,64.3,239.6
			C64.4,239.7,64.3,239.6,64.3,239.6z"/>
		<path fill="#222222" d="M179.3,244c0,0.1,0.1,0.2,0.1,0.3c0,0,0,0-0.1,0.1C179.4,244.2,179.3,244.1,179.3,244
			C179.3,244,179.3,244,179.3,244z"/>
		<path fill="#222222" d="M179.7,245C179.7,245,179.7,245,179.7,245C179.6,245,179.6,245,179.7,245
			C179.6,244.9,179.6,244.9,179.7,245C179.7,244.9,179.7,245,179.7,245z"/>
		<path fill="#222222" d="M31.1,146.8c0,0,0.1,0,0.1,0c0.1,0,0.1,0.1,0,0.1C31.2,146.9,31.1,146.9,31.1,146.8
			C31.1,146.9,31.1,146.8,31.1,146.8z"/>
		<path fill="#222222" d="M30.5,146.6c0,0-0.1,0-0.1,0c-0.1,0-0.1-0.1,0-0.1C30.4,146.5,30.5,146.5,30.5,146.6
			C30.5,146.5,30.5,146.6,30.5,146.6z"/>
		<path fill="#222222" d="M29.7,146.3C29.6,146.3,29.6,146.3,29.7,146.3C29.6,146.3,29.6,146.3,29.7,146.3c0-0.1,0.1-0.1,0.1,0
			C29.7,146.3,29.7,146.3,29.7,146.3z"/>
		<path fill="#222222" d="M9.4,144.9c-0.1,0.1-0.2,0.1-0.2,0.2c0,0-0.1-0.1-0.1-0.1C9.2,144.9,9.3,144.9,9.4,144.9
			C9.5,144.9,9.4,144.9,9.4,144.9z"/>
		<path fill="#222222" d="M64.9,239.1c-0.1,0.1-0.2,0.2-0.3,0.3c0,0,0,0,0,0C64.6,239.2,64.7,239.1,64.9,239.1
			C64.9,239.1,64.9,239.1,64.9,239.1z"/>
		<path fill="#222222" d="M64.6,239.4c-0.1,0.1-0.2,0.2-0.3,0.3c0,0,0,0,0,0C64.3,239.4,64.4,239.4,64.6,239.4
			C64.6,239.4,64.6,239.4,64.6,239.4z"/>
		<path fill="#222222" d="M64.9,239.1c0-0.2,0-0.3,0.3-0.3c0,0,0,0,0,0C65,238.9,64.9,239,64.9,239.1
			C64.9,239.1,64.9,239.1,64.9,239.1z"/>
		<path fill="#222222" d="M66.7,237.3c-0.1,0.1-0.2,0.2-0.3,0.3l0,0C66.3,237.3,66.4,237.2,66.7,237.3
			C66.7,237.3,66.7,237.3,66.7,237.3z"/>
		<path fill="#222222" d="M65.4,238.6c-0.1,0.1-0.2,0.2-0.3,0.3c0,0,0,0,0,0C65.1,238.7,65.2,238.6,65.4,238.6
			C65.4,238.6,65.4,238.6,65.4,238.6z"/>
		<path fill="#222222" d="M66.4,237.6c-0.1,0.1-0.2,0.2-0.3,0.3c0,0,0,0,0,0C66.1,237.6,66.2,237.5,66.4,237.6
			C66.4,237.6,66.4,237.6,66.4,237.6z"/>
		<path fill="#222222" d="M65.9,238.1c-0.1-0.3,0-0.3,0.3-0.3c0,0,0,0,0,0C66.1,237.9,66,238,65.9,238.1
			C65.9,238.1,65.9,238.1,65.9,238.1z"/>
		<path fill="#222222" d="M65.7,238.4c-0.1-0.3,0-0.3,0.2-0.3c0,0,0,0,0,0C65.8,238.2,65.7,238.3,65.7,238.4
			C65.6,238.3,65.7,238.4,65.7,238.4z"/>
		<path fill="#222222" d="M65.4,238.6c0-0.2,0-0.4,0.3-0.3c0,0,0,0,0,0C65.6,238.4,65.5,238.5,65.4,238.6
			C65.4,238.6,65.4,238.6,65.4,238.6z"/>
		<path fill="#222222" d="M157.7,152.1c0,0.1,0,0.1-0.1,0.2c0,0,0-0.1,0-0.1C157.7,152.2,157.7,152.1,157.7,152.1
			C157.8,152.1,157.7,152.1,157.7,152.1z"/>
		<path fill="#222222" d="M158,151.8c0.1,0.3-0.1,0.3-0.3,0.2c0,0,0,0,0,0C157.9,152,157.9,151.9,158,151.8L158,151.8z"/>
		<path fill="#222222" d="M158,151.9c0.1-0.1,0.2-0.2,0.3-0.3c0,0,0,0,0,0C158.4,151.9,158.2,151.9,158,151.9
			C158,151.8,158,151.9,158,151.9z"/>
		<path fill="#222222" d="M158.3,151.6c0.1,0,0.2-0.1,0.2-0.1c0,0,0,0.1,0,0.1C158.5,151.7,158.4,151.7,158.3,151.6
			C158.3,151.6,158.3,151.6,158.3,151.6z"/>
		<path fill="#222222" d="M212.1,104.8c0.2,0,0.3,0.1,0.3,0.3c0,0,0,0,0,0C212.3,104.9,212.2,104.8,212.1,104.8L212.1,104.8z"/>
		<path fill="#222222" d="M211.9,104.8c0.1,0,0.2-0.3,0.2,0c0,0,0,0,0,0C212.1,104.7,212,104.7,211.9,104.8L211.9,104.8z"/>
		<path fill="#222222" d="M81.2,55.5c0-0.3,0-0.5,0-0.8C81.4,55,81.5,55.3,81.2,55.5z"/>
	</g>
</g>
</svg>
