<?xml version="1.0" encoding="utf-8"?>
<!-- Generator: Adobe Illustrator 18.0.0, SVG Export Plug-In . SVG Version: 6.00 Build 0)  -->
<!DOCTYPE svg PUBLIC "-//W3C//DTD SVG 1.1//EN" "http://www.w3.org/Graphics/SVG/1.1/DTD/svg11.dtd">
<svg version="1.1" id="Layer_1" xmlns="http://www.w3.org/2000/svg" xmlns:xlink="http://www.w3.org/1999/xlink" x="0px" y="0px"
	 viewBox="300.8 32.9 600 300" enable-background="new 300.8 32.9 600 300" xml:space="preserve">
<g opacity="0.75">
	<path fill="#C5C5C5" d="M426.6,212.7h0.4l15-46.9c1.5-4.8,3.6-7.6,6-9.8v-0.1l-13.2,0.9v0.1c3,1.3,4.5,3.5,4.7,6.2
		c0,1-0.1,2.1-0.4,3.3l-7.7,25.7l-10.9-25.4c-0.6-1.6-1.1-2.9-1.2-4.2c-0.1-1.9,0.9-3.3,2.8-4.7v-0.1l-22.8,1.5v0.1
		c2.4,1.7,4,3.5,6.2,8.2l3.6,7.9l-5.6,18.1l-11.8-24.9c-0.7-1.6-1.1-2.9-1.2-4.2c-0.1-1.9,0.8-3.3,2.8-4.7v-0.1l-23.2,1.5v0.1
		c2.4,1.7,4,3.5,6.3,8.2l22,45.2l0.4,0l11.6-36.5L426.6,212.7L426.6,212.7z M450.5,155.9v0.1c3.5,2.1,4.4,3.9,4.7,9.1l1.5,35.6
		c0.2,5.1-0.5,7.1-3.9,9.5v0.1l45.7-1.9l1.8-16h-0.1c-4.2,8-8,14.1-18.4,14.6l-10.1,0.4l-1-24.9l7.1-0.3c6.3-0.3,8.9,0.9,11.7,8h0.1
		l-0.8-19.6h-0.1c-2.2,7.3-4.7,9.1-11,9.4l-7.1,0.3l-1-23.1l8.9-0.4c9.8-0.4,14,3.9,18.8,11.5h0.1l-3.3-15c-1,0.6-2.8,0.8-5.4,0.9
		L450.5,155.9L450.5,155.9z M522.8,205.6l-0.6-24.9l5.4-0.1c8.3-0.2,13,4.1,13.2,12c0.2,8.1-4.3,12.6-12.6,12.8L522.8,205.6z
		 M522.1,178.8l-0.6-23.5l4.2-0.1c6.8-0.2,11.3,3.9,11.5,11.5c0.2,7.4-4,11.9-10.9,12C526.3,178.7,522.1,178.8,522.1,178.8z
		 M533.6,207.5c12.8-0.3,21.7-4.5,21.4-15.1c-0.2-9.5-9.7-13.1-18.2-13.2c7.8-0.6,14.4-5.3,14.2-13c-0.2-9.9-8.4-13.4-20-13.1
		l-28.6,0.7v0.1c3.5,2.1,4.4,4,4.5,9.1l0.9,35.6c0.1,5.1-0.7,7.1-4,9.4v0.1L533.6,207.5z M578.7,152.9c8.1-0.1,13.1,5.7,18,14h0.1
		l-0.5-15.7c-1.2,1-2.6,2.2-4.6,2.2c-3.1,0-7.2-2.1-13-2c-11.9,0.1-20,6.7-19.9,16.8c0.1,10.9,8,14.2,15.7,16.6
		c7.7,2.5,15.5,4.3,15.5,11.7c0,6-4.1,9.3-10.5,9.4c-7.6,0.1-15.6-6.4-20.8-16.3h-0.1l1.6,18.1c1.7-1.3,3.3-2.3,5.4-2.3
		c3.2,0,7.7,2.2,14.1,2.1c11.2-0.1,20.8-6.3,20.7-17.3c-0.1-12.9-10.2-15.6-18.8-18.3c-6.5-1.9-12.1-4.1-12.2-10.4
		C569.3,156.1,573.4,153,578.7,152.9L578.7,152.9z M610.7,151.9c-2.6,0-4.3-0.2-5.4-0.7l-2.7,18.4h0.1c6.7-10.5,9.7-15.6,18.1-15.6
		h3.3l-0.2,43.2c0,5.1-0.9,6.8-4.5,9.1v0.1l23.5,0.1v-0.1c-3.4-2.3-4.4-4-4.4-9.1l0.2-43.2h3.3c8.3,0,11.3,5.2,17.9,15.8h0.1
		l-2.5-18.5c-1.1,0.5-2.8,0.7-5.4,0.6C652.2,152,610.7,151.9,610.7,151.9z M703.2,180.3c-0.4,17.1-3.6,26.4-12.5,26.2
		c-8.9-0.2-11.8-9.6-11.4-26.8c0.4-17.1,3.6-26.4,12.6-26.2S703.6,163.2,703.2,180.3L703.2,180.3z M719.3,180.7
		c0.4-16.4-11.3-28.3-27.3-28.7c-16.1-0.3-28.3,11-28.7,27.4c-0.4,16.4,11.3,28.3,27.4,28.7C706.7,208.5,718.9,197.1,719.3,180.7z
		 M773.5,154.8c-1.7,1.3-3,2.2-5.1,2.1c-2.6-0.1-6.3-2.6-13.4-2.9c-16.1-0.6-29.8,10.5-30.5,27.6c-0.7,16.4,10.3,27.7,25.7,28.4
		c12.1,0.5,20.7-5.6,23.8-15.9l-0.4-0.1c-3.8,7.2-9.3,9.2-15.7,8.9c-10.1-0.4-18-9.2-17.4-24c0.5-13,6.4-23.4,16.1-23
		c7.8,0.3,13.3,7.5,16.7,17.5h0.1L773.5,154.8L773.5,154.8z M799.5,211.8v-0.1c-3.3-2.4-4-4.4-3.7-9.6l0.8-13.5l3.9-3.2l10,18.4
		c1.3,2.7,1.9,4.3,1.8,5.8c-0.1,1.5-0.7,2.1-2.2,2.8v0.1L835,214v-0.1c-3.1-2-5.5-4.8-7.7-9l-15.1-29l10.4-8.7
		c3.9-3.2,7.7-5.8,13-7.6v-0.1l-16-1v0.1c1.9,1,2.9,2.6,2.8,4.2c0,1.2-0.8,2.5-2.2,3.7l-23.4,19.5l1.2-19.4c0.3-5.1,1.3-6.9,4.8-9
		v-0.1l-23.2-1.4v0.1c3.3,2.4,4,4.4,3.7,9.5l-2.2,35.6c-0.3,5.1-1.3,7-4.8,9.1v0.1L799.5,211.8L799.5,211.8z"/>
</g>
<g>
	<path fill="#F3F3F3" d="M425.6,212.7h0.4l15-46.9c1.5-4.8,3.6-7.6,6-9.8v-0.1l-13.2,0.9v0.1c3,1.3,4.5,3.5,4.7,6.2
		c0,1-0.1,2.1-0.4,3.3l-7.7,25.7l-10.9-25.4c-0.6-1.6-1.1-2.9-1.2-4.2c-0.1-1.9,0.9-3.3,2.8-4.7v-0.1l-22.8,1.5v0.1
		c2.4,1.7,4,3.5,6.2,8.2l3.6,7.9l-5.6,18.1l-11.8-24.9c-0.7-1.6-1.1-2.9-1.2-4.2c-0.1-1.9,0.8-3.3,2.8-4.7v-0.1l-23.2,1.5v0.1
		c2.4,1.7,4,3.5,6.3,8.2l22,45.2l0.4,0l11.6-36.5L425.6,212.7L425.6,212.7z M449.5,155.9v0.1c3.5,2.1,4.4,3.9,4.7,9.1l1.5,35.6
		c0.2,5.1-0.5,7.1-3.9,9.5v0.1l45.7-1.9l1.8-16h-0.1c-4.2,8-8,14.1-18.4,14.6l-10.1,0.4l-1-24.9l7.1-0.3c6.3-0.3,8.9,0.9,11.7,8h0.1
		l-0.8-19.6h-0.1c-2.2,7.3-4.7,9.1-11,9.4l-7.1,0.3l-1-23.1l8.9-0.4c9.8-0.4,14,3.9,18.8,11.5h0.1l-3.3-15c-1,0.6-2.8,0.8-5.4,0.9
		L449.5,155.9L449.5,155.9z M521.8,205.6l-0.6-24.9l5.4-0.1c8.3-0.2,13,4.1,13.2,12c0.2,8.1-4.3,12.6-12.6,12.8L521.8,205.6z
		 M521.1,178.8l-0.6-23.5l4.2-0.1c6.8-0.2,11.3,3.9,11.5,11.5c0.2,7.4-4,11.9-10.9,12C525.4,178.7,521.1,178.8,521.1,178.8z
		 M532.6,207.5c12.8-0.3,21.7-4.5,21.4-15.1c-0.2-9.5-9.7-13.1-18.2-13.2c7.8-0.6,14.4-5.3,14.2-13c-0.2-9.9-8.4-13.4-20-13.1
		l-28.6,0.7v0.1c3.5,2.1,4.4,4,4.5,9.1l0.9,35.6c0.1,5.1-0.7,7.1-4,9.4v0.1L532.6,207.5z M577.7,152.9c8.1-0.1,13.1,5.7,18,14h0.1
		l-0.5-15.7c-1.2,1-2.6,2.2-4.6,2.2c-3.1,0-7.2-2.1-13-2c-11.9,0.1-20,6.7-19.9,16.8c0.1,10.9,8,14.2,15.7,16.6
		c7.7,2.5,15.5,4.3,15.5,11.7c0,6-4.1,9.3-10.5,9.4c-7.6,0.1-15.6-6.4-20.8-16.3h-0.1l1.6,18.1c1.7-1.3,3.3-2.3,5.4-2.3
		c3.2,0,7.7,2.2,14.1,2.1c11.2-0.1,20.8-6.3,20.7-17.3c-0.1-12.9-10.2-15.6-18.8-18.3c-6.5-1.9-12.1-4.1-12.2-10.4
		C568.3,156.1,572.4,153,577.7,152.9L577.7,152.9z M609.7,151.9c-2.6,0-4.3-0.2-5.4-0.7l-2.7,18.4h0.1c6.7-10.5,9.7-15.6,18.1-15.6
		h3.3l-0.2,43.2c0,5.1-0.9,6.8-4.5,9.1v0.1l23.5,0.1v-0.1c-3.4-2.3-4.4-4-4.4-9.1l0.2-43.2h3.3c8.3,0,11.3,5.2,17.9,15.8h0.1
		l-2.5-18.5c-1.1,0.5-2.8,0.7-5.4,0.6C651.2,152,609.7,151.9,609.7,151.9z M702.2,180.3c-0.4,17.1-3.6,26.4-12.5,26.2
		c-8.9-0.2-11.8-9.6-11.4-26.8c0.4-17.1,3.6-26.4,12.6-26.2S702.6,163.2,702.2,180.3L702.2,180.3z M718.3,180.7
		c0.4-16.4-11.3-28.3-27.3-28.7c-16.1-0.3-28.3,11-28.7,27.4c-0.4,16.4,11.3,28.3,27.4,28.7C705.7,208.5,717.9,197.1,718.3,180.7z
		 M772.5,154.8c-1.7,1.3-3,2.2-5.1,2.1c-2.6-0.1-6.3-2.6-13.4-2.9c-16.1-0.6-29.8,10.5-30.5,27.6c-0.7,16.4,10.3,27.7,25.7,28.4
		c12.1,0.5,20.7-5.6,23.8-15.9l-0.4-0.1c-3.8,7.2-9.3,9.2-15.7,8.9c-10.1-0.4-18-9.2-17.4-24c0.5-13,6.4-23.4,16.1-23
		c7.8,0.3,13.3,7.5,16.7,17.5h0.1L772.5,154.8L772.5,154.8z M798.5,211.8v-0.1c-3.3-2.4-4-4.4-3.7-9.6l0.8-13.5l3.9-3.2l10,18.4
		c1.3,2.7,1.9,4.3,1.8,5.8s-0.7,2.1-2.2,2.8v0.1L834,214v-0.1c-3.1-2-5.5-4.8-7.7-9l-15.1-29l10.4-8.7c3.9-3.2,7.7-5.8,13-7.6v-0.1
		l-16-1v0.1c1.9,1,2.9,2.6,2.8,4.2c0,1.2-0.8,2.5-2.2,3.7l-23.4,19.5l1.2-19.4c0.3-5.1,1.3-6.9,4.8-9v-0.1l-23.2-1.4v0.1
		c3.3,2.4,4,4.4,3.7,9.5l-2.2,35.6c-0.3,5.1-1.3,7-4.8,9.1v0.1L798.5,211.8L798.5,211.8z"/>
</g>
<path opacity="0.75" fill="#C5C5C5" enable-background="new    " d="M849.6,189.4c-1.6-2.9-1.5-6.7,0.6-10.4c2.4-4,5.5-6.1,9.4-6.9
	c4.6-1,9.8,0.2,14.7,3.5c6.3,4.3,15.1,8.1,20.7,7c1.8-0.3,3.1-1.2,4-2.6c0.2-0.3,0.7-0.4,1-0.2c1.2,0.2,0.8,1.7,0.4,3.5
	c-0.4,1.8-3.3,1.1-3.5,2.1c-0.2,1-1.5,2.2-2.8,1.9c-1.3-0.3-3-0.7-2.5,0c0.4,0.6,1.9,2.7,0.7,2.6l-2.6-1.4c0,0,0,1.2-1.1,0.9
	c-1.1-0.3-2.2-2.1-3-1.4c-0.8,0.6-1-2.3-2.1-3.8c-1.4-2-2.2-0.9-2.3-0.3c-0.1,1.1,1.5,1.6,1.6,2.6c0,1-1.7-0.1-1.7-0.1
	s0.7,1.9,0.6,3c0,1.1-1.1,1.4-2.2-0.1c-0.6,1.3-2.7-0.4-3.3-2.6c-0.4,0.3-1.7,1-2.2-1c-0.5-2.1-1.2-5.5-3.9-8
	c-2.7-2.4-6.3-3.5-6.5-2.1c-0.2,1,2.5,2.1,4.5,3.1c0.9,0.5,1.1,1.1,0.6,1.9c2,1.1,2.6,2.7-0.2,2.3c-2.8-0.4-4.3-4-7.5-5.9
	c-3.1-1.8-7.4,0.5-9.2,3.1c-1.9,3.2-2.1,6.4-0.8,8.8c1.2,2.2,3.6,3.6,6.3,3.7c2.7,0.1,4.4-2,5-3.9c0.6-2,0.5-4.7-1.4-6
	c-1.9-1.2-3.4-0.5-4.3,0.3c-0.3,0.4-0.6,0.9-0.8,1.4c0.4-0.3,1-0.4,1.6-0.3c1.2,0.2,2,1.4,1.8,2.6c-0.2,1.2-1.4,2-2.6,1.8
	c-0.8-0.1-1.7-0.9-2.1-2c-0.6-1.8,0.1-3.2,1.1-4.3c1.3-1.4,3.8-2.1,6.1-0.5c2.2,1.5,3,4.4,2,7.4c-1,3.1-3.5,5-6.5,4.9
	C854,193.8,851,192.1,849.6,189.4L849.6,189.4z"/>
<path fill="#F3F3F3" d="M848.6,189.4c-1.6-2.9-1.5-6.7,0.6-10.4c2.4-4,5.5-6.1,9.4-6.9c4.6-1,9.8,0.2,14.7,3.5
	c6.3,4.3,15.1,8.1,20.7,7c1.8-0.3,3.1-1.2,4-2.6c0.2-0.3,0.7-0.4,1-0.2c1.2,0.2,0.8,1.7,0.4,3.5c-0.4,1.8-3.3,1.1-3.5,2.1
	c-0.2,1-1.5,2.2-2.8,1.9c-1.3-0.3-3-0.7-2.5,0c0.4,0.6,1.9,2.7,0.7,2.6l-2.6-1.4c0,0,0,1.2-1.1,0.9c-1.1-0.3-2.2-2.1-3-1.4
	c-0.8,0.6-1-2.3-2.1-3.8c-1.4-2-2.2-0.9-2.3-0.3c-0.1,1.1,1.5,1.6,1.6,2.6c0,1-1.7-0.1-1.7-0.1s0.7,1.9,0.6,3c0,1.1-1.1,1.4-2.2-0.1
	c-0.6,1.3-2.7-0.4-3.3-2.6c-0.4,0.3-1.7,1-2.2-1c-0.5-2.1-1.2-5.5-3.9-8c-2.7-2.4-6.3-3.5-6.5-2.1c-0.2,1,2.5,2.1,4.5,3.1
	c0.9,0.5,1.1,1.1,0.6,1.9c2,1.1,2.6,2.7-0.2,2.3c-2.8-0.4-4.3-4-7.5-5.9c-3.1-1.8-7.4,0.5-9.2,3.1c-1.9,3.2-2.1,6.4-0.8,8.8
	c1.2,2.2,3.6,3.6,6.3,3.7c2.7,0.1,4.4-2,5-3.9c0.6-2,0.5-4.7-1.4-6c-1.9-1.2-3.4-0.5-4.3,0.3c-0.3,0.4-0.6,0.9-0.8,1.4
	c0.4-0.3,1-0.4,1.6-0.3c1.2,0.2,2,1.4,1.8,2.6c-0.2,1.2-1.4,2-2.6,1.8c-0.8-0.1-1.7-0.9-2.1-2c-0.6-1.8,0.1-3.2,1.1-4.3
	c1.3-1.4,3.8-2.1,6.1-0.5c2.2,1.5,3,4.4,2,7.4c-1,3.1-3.5,5-6.5,4.9C853,193.8,850,192.1,848.6,189.4L848.6,189.4z"/>
<path opacity="0.75" fill="#C5C5C5" enable-background="new    " d="M354,189.4c1.6-2.9,1.5-6.7-0.6-10.4c-2.4-4-5.5-6.1-9.4-6.9
	c-4.6-1-9.8,0.2-14.7,3.5c-6.3,4.3-15.1,8.1-20.7,7c-1.8-0.3-3.1-1.2-4-2.6c-0.2-0.3-0.7-0.4-1-0.2c-1.2,0.2-0.8,1.7-0.4,3.5
	c0.4,1.8,3.3,1.1,3.5,2.1c0.2,1,1.5,2.2,2.8,1.9c1.3-0.3,3-0.7,2.5,0c-0.4,0.6-1.9,2.7-0.7,2.6l2.6-1.4c0,0,0,1.2,1.1,0.9
	c1.1-0.3,2.2-2.1,3-1.4c0.8,0.6,1-2.3,2.1-3.8c1.4-2,2.2-0.9,2.3-0.3c0.1,1.1-1.5,1.6-1.6,2.6c0,1,1.7-0.1,1.7-0.1s-0.7,1.9-0.6,3
	c0,1.1,1.1,1.4,2.2-0.1c0.6,1.3,2.7-0.4,3.3-2.6c0.4,0.3,1.7,1,2.2-1c0.4-2.1,1.2-5.5,3.9-8c2.7-2.4,6.3-3.5,6.5-2.1
	c0.2,1-2.5,2.1-4.5,3.1c-0.9,0.5-1.1,1.1-0.6,1.9c-2,1.1-2.6,2.7,0.2,2.3c2.8-0.4,4.3-4,7.5-5.9c3.1-1.8,7.4,0.5,9.2,3.1
	c1.9,3.2,2.1,6.4,0.8,8.8c-1.2,2.2-3.6,3.6-6.3,3.7c-2.7,0.1-4.4-2-5-3.9c-0.6-2-0.5-4.7,1.4-6c1.9-1.2,3.4-0.5,4.3,0.3
	c0.3,0.4,0.6,0.9,0.8,1.4c-0.4-0.3-1-0.4-1.6-0.3c-1.2,0.2-2,1.4-1.8,2.6c0.2,1.2,1.4,2,2.6,1.8c0.8-0.1,1.7-0.9,2.1-2
	c0.6-1.8-0.1-3.2-1.1-4.3c-1.3-1.4-3.8-2.1-6.1-0.5c-2.2,1.5-3,4.4-2,7.4c1,3.1,3.5,5,6.5,4.9C349.7,193.8,352.6,192.1,354,189.4
	L354,189.4z"/>
<path fill="#F3F3F3" d="M353,189.4c1.6-2.9,1.5-6.7-0.6-10.4c-2.4-4-5.5-6.1-9.4-6.9c-4.6-1-9.8,0.2-14.7,3.5
	c-6.3,4.3-15.1,8.1-20.7,7c-1.8-0.3-3.1-1.2-4-2.6c-0.2-0.3-0.7-0.4-1-0.2c-1.2,0.2-0.8,1.7-0.4,3.5c0.4,1.8,3.3,1.1,3.5,2.1
	c0.2,1,1.5,2.2,2.8,1.9c1.3-0.3,3-0.7,2.5,0c-0.4,0.6-1.9,2.7-0.7,2.6l2.6-1.4c0,0,0,1.2,1.1,0.9c1.1-0.3,2.2-2.1,3-1.4
	c0.8,0.6,1-2.3,2.1-3.8c1.4-2,2.2-0.9,2.3-0.3c0.1,1.1-1.5,1.6-1.6,2.6c0,1,1.7-0.1,1.7-0.1s-0.7,1.9-0.6,3c0,1.1,1.1,1.4,2.2-0.1
	c0.6,1.3,2.7-0.4,3.3-2.6c0.4,0.3,1.7,1,2.2-1c0.4-2.1,1.2-5.5,3.9-8c2.7-2.4,6.3-3.5,6.5-2.1c0.2,1-2.5,2.1-4.5,3.1
	c-0.9,0.5-1.1,1.1-0.6,1.9c-2,1.1-2.6,2.7,0.2,2.3c2.8-0.4,4.3-4,7.5-5.9s7.4,0.5,9.2,3.1c1.9,3.2,2.1,6.4,0.8,8.8
	c-1.2,2.2-3.6,3.6-6.3,3.7c-2.7,0.1-4.4-2-5-3.9c-0.6-2-0.5-4.7,1.4-6c1.9-1.2,3.4-0.5,4.3,0.3c0.3,0.4,0.6,0.9,0.8,1.4
	c-0.4-0.3-1-0.4-1.6-0.3c-1.2,0.2-2,1.4-1.8,2.6c0.2,1.2,1.4,2,2.6,1.8c0.8-0.1,1.7-0.9,2.1-2c0.6-1.8-0.1-3.2-1.1-4.3
	c-1.3-1.4-3.8-2.1-6.1-0.5c-2.2,1.5-3,4.4-2,7.4c1,3.1,3.5,5,6.5,4.9C348.7,193.8,351.6,192.1,353,189.4L353,189.4z"/>
<g>
	<path fill="#222222" d="M424.1,212.7l0.4,0l15-46.9c1.5-4.8,3.6-7.6,6-9.8v-0.1l-13.2,0.9v0.1c3,1.3,4.5,3.5,4.7,6.2
		c0,1-0.1,2.1-0.4,3.3l-7.7,25.7L418,166.6c-0.6-1.6-1.1-2.9-1.2-4.2c-0.1-1.9,0.9-3.3,2.8-4.7v-0.1l-22.8,1.5v0.1
		c2.4,1.7,4,3.5,6.2,8.2l3.6,7.9l-5.6,18.2l-11.8-24.9c-0.7-1.6-1.1-2.9-1.2-4.2c-0.1-1.9,0.8-3.3,2.8-4.7v-0.1l-23.2,1.5v0.1
		c2.4,1.7,4,3.5,6.3,8.2l22,45.2l0.4,0l11.6-36.5L424.1,212.7L424.1,212.7z M448,155.9v0.1c3.5,2.1,4.4,3.9,4.7,9.1l1.5,35.6
		c0.2,5.1-0.5,7.1-3.9,9.5v0.1l45.7-2l1.8-16h-0.1c-4.2,8-8,14.1-18.4,14.6l-10.1,0.4l-1-24.9l7.1-0.3c6.3-0.3,8.9,0.9,11.7,8h0.1
		l-0.9-19.6H486c-2.2,7.3-4.7,9.1-11,9.4l-7.1,0.3l-1-23.1l8.9-0.4c9.8-0.4,14,3.9,18.8,11.5h0.1l-3.3-15c-1,0.6-2.8,0.8-5.4,0.9
		L448,155.9L448,155.9z M520.3,205.6l-0.6-24.8l5.4-0.1c8.3-0.2,13,4.1,13.2,12c0.2,8.1-4.3,12.6-12.6,12.8L520.3,205.6z
		 M519.6,178.7l-0.6-23.5l4.2-0.1c6.8-0.2,11.3,3.9,11.5,11.5c0.2,7.4-4,11.9-10.9,12C523.9,178.7,519.6,178.7,519.6,178.7z
		 M531.1,207.4c12.8-0.3,21.7-4.5,21.4-15.1c-0.2-9.5-9.7-13.1-18.2-13.2c7.8-0.6,14.4-5.3,14.2-13c-0.2-9.9-8.4-13.4-20-13.1
		l-28.6,0.7v0.1c3.5,2.1,4.4,4,4.5,9.1l0.9,35.6c0.1,5.1-0.7,7.1-4,9.4v0.1C501.4,208.1,531.1,207.4,531.1,207.4z M576.2,152.8
		c8.1-0.1,13.1,5.7,18,14h0.1l-0.5-15.7c-1.2,1-2.6,2.2-4.6,2.2c-3.1,0-7.2-2.1-13-2c-11.9,0.1-20,6.7-19.9,16.8
		c0.1,10.9,8,14.2,15.7,16.6c7.7,2.5,15.5,4.3,15.5,11.7c0,6-4.1,9.3-10.5,9.4c-7.7,0.1-15.6-6.4-20.9-16.3H556l1.6,18.1
		c1.7-1.3,3.3-2.3,5.4-2.3c3.2,0,7.7,2.2,14.1,2.1c11.2-0.1,20.8-6.3,20.7-17.3c-0.1-12.9-10.2-15.6-18.8-18.3
		c-6.5-1.9-12.1-4.1-12.2-10.4C566.8,156,570.9,152.9,576.2,152.8L576.2,152.8z M608.2,151.8c-2.6,0-4.3-0.2-5.4-0.7l-2.7,18.4h0.1
		c6.7-10.5,9.7-15.7,18.1-15.6h3.3l-0.2,43.2c0,5.1-0.9,6.8-4.5,9.1v0.1l23.5,0.1v-0.1c-3.4-2.3-4.4-4-4.4-9.1l0.2-43.2h3.3
		c8.3,0,11.3,5.2,17.9,15.8h0.1l-2.5-18.5c-1.1,0.5-2.8,0.7-5.4,0.7L608.2,151.8L608.2,151.8z M700.7,180.2
		c-0.4,17.1-3.6,26.4-12.5,26.2c-8.9-0.2-11.8-9.6-11.4-26.8s3.6-26.4,12.6-26.2C698.3,153.7,701.1,163.1,700.7,180.2L700.7,180.2z
		 M716.8,180.6c0.4-16.4-11.3-28.3-27.3-28.7c-16.1-0.3-28.3,11-28.7,27.4c-0.4,16.4,11.3,28.3,27.4,28.7
		C704.2,208.4,716.4,197,716.8,180.6z M771,154.8c-1.7,1.3-3,2.2-5.1,2.1c-2.6-0.1-6.3-2.6-13.4-2.9c-16.1-0.6-29.8,10.5-30.5,27.6
		c-0.7,16.5,10.3,27.8,25.6,28.4c12.1,0.5,20.7-5.6,23.8-15.9l-0.4-0.1c-3.8,7.2-9.3,9.2-15.7,8.9c-10.1-0.4-18-9.2-17.4-24
		c0.5-13,6.4-23.4,16.1-23c7.8,0.3,13.3,7.5,16.7,17.5h0.1C770.7,173.4,771,154.8,771,154.8z M797,211.7v-0.1
		c-3.3-2.4-4-4.4-3.7-9.6l0.8-13.5l3.9-3.2l10,18.4c1.3,2.7,1.9,4.3,1.8,5.8c0,1.4-0.7,2.1-2.2,2.8v0.1l24.7,1.5v-0.1
		c-3.1-2-5.5-4.8-7.7-9l-15.1-29l10.4-8.7c3.9-3.2,7.7-5.8,13-7.6v-0.1l-16-1v0.1c1.9,1,2.9,2.6,2.8,4.2c0,1.2-0.8,2.5-2.2,3.7
		l-23.4,19.5l1.2-19.4c0.3-5.1,1.3-6.9,4.8-9v-0.1l-23.2-1.4v0.1c3.3,2.4,4,4.4,3.7,9.5l-2.2,35.5c-0.3,5.1-1.3,7-4.8,9.1v0.1
		L797,211.7L797,211.7z"/>
</g>
<path fill="#222222" d="M847.6,189.4c-1.6-2.9-1.5-6.7,0.6-10.4c2.4-4,5.5-6.1,9.4-6.9c4.6-1,9.8,0.2,14.7,3.5
	c6.3,4.3,15.1,8.1,20.7,7c1.8-0.3,3.1-1.2,4-2.6c0.2-0.3,0.7-0.4,1-0.2c1.2,0.2,0.8,1.7,0.4,3.5c-0.4,1.8-3.3,1.1-3.5,2.1
	c-0.2,1-1.5,2.2-2.8,1.9c-1.3-0.3-3-0.7-2.5,0c0.4,0.6,1.9,2.7,0.7,2.6l-2.6-1.4c0,0,0,1.2-1.1,0.9c-1.1-0.3-2.2-2.1-3-1.4
	c-0.8,0.6-1-2.3-2.1-3.8c-1.4-2-2.2-0.9-2.3-0.3c-0.1,1.1,1.5,1.6,1.6,2.6c0,1-1.7-0.1-1.7-0.1s0.7,1.9,0.6,3c0,1.1-1.1,1.4-2.2-0.1
	c-0.6,1.3-2.7-0.4-3.3-2.6c-0.4,0.3-1.7,1-2.2-1c-0.5-2.1-1.2-5.5-3.9-8c-2.7-2.4-6.3-3.5-6.5-2.1c-0.2,1,2.5,2.1,4.5,3.1
	c0.9,0.5,1.1,1.1,0.6,1.9c2,1.1,2.6,2.7-0.2,2.3c-2.8-0.4-4.3-4-7.5-5.9s-7.4,0.5-9.2,3.1c-1.9,3.2-2.1,6.4-0.8,8.8
	c1.2,2.2,3.6,3.6,6.3,3.7c2.7,0.1,4.4-2,5-3.9c0.6-2,0.5-4.7-1.4-6c-1.9-1.2-3.4-0.5-4.3,0.3c-0.3,0.4-0.6,0.9-0.8,1.4
	c0.4-0.3,1-0.4,1.6-0.3c1.2,0.2,2,1.4,1.8,2.6c-0.2,1.2-1.4,2-2.6,1.8c-0.8-0.1-1.7-0.9-2.1-2c-0.6-1.8,0.1-3.2,1.1-4.3
	c1.3-1.4,3.8-2.1,6.1-0.5c2.2,1.5,3,4.4,2,7.4c-1,3.1-3.5,5-6.5,4.9C852,193.8,849,192.1,847.6,189.4L847.6,189.4z M352,189.4
	c1.6-2.9,1.5-6.7-0.6-10.4c-2.4-4-5.5-6.1-9.4-6.9c-4.6-1-9.8,0.2-14.7,3.5c-6.3,4.3-15.1,8.1-20.7,7c-1.8-0.3-3.1-1.2-4-2.6
	c-0.2-0.3-0.7-0.4-1-0.2c-1.2,0.2-0.8,1.7-0.4,3.5c0.4,1.8,3.3,1.1,3.5,2.1c0.2,1,1.5,2.2,2.8,1.9c1.3-0.3,3-0.7,2.5,0
	c-0.4,0.6-1.9,2.7-0.7,2.6l2.6-1.4c0,0,0,1.2,1.1,0.9c1.1-0.3,2.2-2.1,3-1.4c0.8,0.6,1-2.3,2.1-3.8c1.4-2,2.2-0.9,2.3-0.3
	c0.1,1.1-1.5,1.6-1.6,2.6c0,1,1.7-0.1,1.7-0.1s-0.7,1.9-0.6,3c0,1.1,1.1,1.4,2.2-0.1c0.6,1.3,2.7-0.4,3.3-2.6c0.4,0.3,1.7,1,2.2-1
	c0.4-2.1,1.2-5.5,3.9-8c2.7-2.4,6.3-3.5,6.5-2.1c0.2,1-2.5,2.1-4.5,3.1c-0.9,0.5-1.1,1.1-0.6,1.9c-2,1.1-2.6,2.7,0.2,2.3
	c2.8-0.4,4.3-4,7.5-5.9s7.4,0.5,9.2,3.1c1.9,3.2,2.1,6.4,0.8,8.8c-1.2,2.2-3.6,3.6-6.3,3.7c-2.7,0.1-4.4-2-5-3.9
	c-0.6-2-0.5-4.7,1.4-6c1.9-1.2,3.4-0.5,4.3,0.3c0.3,0.4,0.6,0.9,0.8,1.4c-0.4-0.3-1-0.4-1.6-0.3c-1.2,0.2-2,1.4-1.8,2.6
	c0.2,1.2,1.4,2,2.6,1.8c0.8-0.1,1.7-0.9,2.1-2c0.6-1.8-0.1-3.2-1.1-4.3c-1.3-1.4-3.8-2.1-6.1-0.5c-2.2,1.5-3,4.4-2,7.4
	c1,3.1,3.5,5,6.5,4.9C347.7,193.8,350.6,192.1,352,189.4L352,189.4z"/>
</svg>
